<svg width="1440" height="1024" viewBox="0 0 1440 1024" fill="none" xmlns="http://www.w3.org/2000/svg">
<g clip-path="url(#clip0_501_5)">
<rect width="1440" height="1024" fill="#FFF2F9"/>
<path opacity="0.5" d="M663.669 0H780.771L918 840H524L663.669 0Z" fill="#FF3AAD" fill-opacity="0.2"/>
<path opacity="0.5" d="M674.5 0H770.5L883 840H560L674.5 0Z" fill="#FFEBF7"/>
<rect x="-2" y="843" width="1444" height="183" fill="#F5BCDE" stroke="#E4A1CA" stroke-width="4"/>
<path d="M24 256C24 253.791 25.7909 252 28 252H408C410.209 252 412 253.791 412 256V793H24V256Z" fill="#CB8DB2"/>
<rect x="24" y="252" width="388" height="35" fill="#B6739C"/>
<rect x="38.5" y="320" width="359" height="132" rx="4" fill="url(#paint0_linear_501_5)" fill-opacity="0.7"/>
<path d="M123.113 390.407C123.113 395.535 120.092 400.451 114.65 404.192C109.22 407.925 101.58 410.315 93.0203 410.315C84.4606 410.315 76.8209 407.925 71.3902 404.192C65.9485 400.451 62.9277 395.535 62.9277 390.407C62.9277 385.28 65.9485 380.364 71.3902 376.623C76.8209 372.89 84.4606 370.5 93.0203 370.5C101.58 370.5 109.22 372.89 114.65 376.623C120.092 380.364 123.113 385.28 123.113 390.407Z" stroke="#99587F" stroke-width="5"/>
<rect x="48.2051" y="390.407" width="89.6296" height="32.5926" rx="4" fill="#EDB2D5"/>
<rect x="48.2051" y="390.407" width="89.6296" height="13.5802" rx="4" fill="#E398C4"/>
<rect x="76.7227" y="401.272" width="33.2716" height="5.4321" fill="#E18FBF"/>
<path d="M93.3581 396.519L95.2838 401.723L100.488 403.648L95.2838 405.574L93.3581 410.778L91.4325 405.574L86.2285 403.648L91.4325 401.723L93.3581 396.519Z" fill="#D175AC"/>
<path d="M245.175 360.723C245.175 371.415 234.203 380.946 219.482 380.946C204.762 380.946 193.789 371.415 193.789 360.723C193.789 350.031 204.762 340.5 219.482 340.5C234.203 340.5 245.175 350.031 245.175 360.723Z" stroke="#936280" stroke-width="5"/>
<path d="M188.225 370.994C189.589 368.307 192.346 366.614 195.359 366.614H244.701C247.801 366.614 250.622 368.405 251.94 371.21L270.928 411.596C273.422 416.902 269.551 423 263.688 423H174.865C168.897 423 165.03 416.702 167.731 411.38L188.225 370.994Z" fill="#EFC2DD"/>
<path d="M192.551 366.614H246.833L247.675 392.703H190.447L192.551 366.614Z" fill="#E7AED1"/>
<rect x="211.486" y="389.336" width="15.9901" height="5.89109" fill="#D98DBB"/>
<path d="M186.241 397.753L188.698 405.312L196.646 405.312L190.216 409.985L192.672 417.544L186.241 412.872L179.811 417.544L182.267 409.985L175.836 405.312L183.785 405.312L186.241 397.753Z" fill="#D291B8"/>
<path d="M372.018 356.993C373.649 361.285 372.62 366.708 368.52 372.278C364.449 377.808 357.638 383 348.968 386.296C340.297 389.592 331.757 390.234 325.041 388.805C318.276 387.364 313.905 383.994 312.273 379.703C310.642 375.411 311.672 369.988 315.771 364.418C319.842 358.888 326.653 353.696 335.324 350.4C343.994 347.105 352.534 346.462 359.251 347.892C366.015 349.332 370.387 352.702 372.018 356.993Z" stroke="#93617F" stroke-width="8"/>
<path d="M384.556 351.794C385.865 351.294 387.269 352.261 387.269 353.662V420.891C387.269 421.996 386.374 422.891 385.269 422.891H303.055C301.95 422.891 301.055 421.996 301.055 420.891V385.038C301.055 384.209 301.567 383.466 302.342 383.17L384.556 351.794Z" fill="#EAA8D0"/>
<path d="M359.797 371L366.083 388.966H386.426L369.968 400.069L376.255 418.034L359.797 406.931L343.339 418.034L349.625 400.069L333.167 388.966H353.51L359.797 371Z" fill="#D98DBB"/>
<rect x="38.5" y="423" width="359" height="29" rx="4" fill="#BA759F"/>
<rect x="38.5" y="473" width="359" height="132" rx="4" fill="url(#paint1_linear_501_5)" fill-opacity="0.7"/>
<path d="M135.25 520.826C135.25 524.689 132.977 528.46 128.749 531.371C124.532 534.275 118.568 536.151 111.86 536.151C105.152 536.151 99.1888 534.275 94.9713 531.371C90.743 528.46 88.4707 524.689 88.4707 520.826C88.4707 516.962 90.743 513.191 94.9713 510.28C99.1888 507.376 105.152 505.5 111.86 505.5C118.568 505.5 124.532 507.376 128.749 510.28C132.977 513.191 135.25 516.962 135.25 520.826Z" stroke="#915B7E" stroke-width="5"/>
<path d="M66.3223 552.852C66.3223 536.594 84.7959 527.897 100.554 531.901C107.518 533.671 114.14 533.88 120.872 532.545C137.092 529.327 156.299 537.801 156.299 554.337V556C156.299 567.046 147.345 576 136.299 576H86.3223C75.2766 576 66.3223 567.046 66.3223 556V552.852Z" fill="#EFC2DD"/>
<path d="M79.0547 529.496C102.822 526.383 121.497 527.421 143.566 530.534L144.086 540.374C144.279 544.043 141.949 547.372 138.435 548.446L112.159 556.477L84.7714 548.321C81.3798 547.311 79.0547 544.193 79.0547 540.654V529.496Z" fill="#E398C4"/>
<path d="M112.159 547.14L114.681 553.955L121.497 556.477L114.681 558.999L112.159 565.814L109.638 558.999L102.822 556.477L109.638 553.955L112.159 547.14Z" fill="#D175AC"/>
<path d="M226.135 528.267C232.73 528.267 238.774 526.901 243.225 524.621C247.596 522.382 250.837 519.02 250.837 514.883C250.837 510.746 247.596 507.384 243.225 505.145C238.774 502.865 232.73 501.5 226.135 501.5C219.541 501.5 213.496 502.865 209.045 505.145C204.674 507.384 201.434 510.746 201.434 514.883C201.434 519.02 204.674 522.382 209.045 524.621C213.496 526.901 219.541 528.267 226.135 528.267Z" stroke="#975C80" stroke-width="3"/>
<path d="M271.973 547.706L254.996 576H198.407L180.299 547.706H271.973Z" fill="#EDB2D5"/>
<path d="M271.973 547.706L254.996 519.977H198.407L180.299 547.706H271.973Z" fill="#EDB2D5"/>
<path d="M248.206 551.667L249.734 555.797L253.865 557.325L249.734 558.854L248.206 562.984L246.677 558.854L242.547 557.325L246.677 555.797L248.206 551.667Z" fill="#E398C4"/>
<rect x="198.406" y="519.977" width="56.5891" height="29.4264" fill="#DF9FC6"/>
<rect x="215.383" y="547.139" width="23.7674" height="3.39535" fill="#CB87B0"/>
<rect x="222.174" y="547.139" width="11.3178" height="7.92248" fill="#C07BA5"/>
<path d="M312.038 530.22H354.601L355.261 550.676H310.389L312.038 530.22Z" fill="#8A8A8A"/>
<rect x="326.885" y="548.037" width="12.5377" height="4.61916" fill="#656565"/>
<path d="M354.632 523.466C354.632 526.954 352.581 530.385 348.71 533.05C344.85 535.708 339.38 537.432 333.218 537.432C327.055 537.432 321.585 535.708 317.725 533.05C313.854 530.385 311.803 526.954 311.803 523.466C311.803 519.977 313.854 516.547 317.725 513.882C321.585 511.224 327.055 509.5 333.218 509.5C339.38 509.5 344.85 511.224 348.71 513.882C352.581 516.547 354.632 519.977 354.632 523.466Z" stroke="#9E6687" stroke-width="5"/>
<ellipse cx="332.825" cy="549.733" rx="36.8524" ry="26.2671" fill="#EDB8D7"/>
<ellipse cx="333.216" cy="538.756" rx="27.8353" ry="16.858" fill="#D89BBF"/>
<path d="M317.142 531.307L318.902 536.725H324.599L319.99 540.073L321.751 545.491L317.142 542.143L312.533 545.491L314.293 540.073L309.685 536.725H315.381L317.142 531.307Z" fill="#BA769E"/>
<ellipse cx="333.216" cy="554.045" rx="6.66479" ry="3.92047" fill="#9C6686"/>
<rect x="325.768" y="553.261" width="14.8978" height="1.56819" fill="#804E6C"/>
<rect x="38.5" y="576" width="359" height="29" rx="4" fill="#BA759F"/>
<rect x="38.5" y="626" width="359" height="132" rx="4" fill="url(#paint2_linear_501_5)" fill-opacity="0.7"/>
<path d="M147.369 666.723C147.369 677.415 136.396 686.946 121.675 686.946C106.955 686.946 95.9824 677.415 95.9824 666.723C95.9824 656.031 106.955 646.5 121.675 646.5C136.396 646.5 147.369 656.031 147.369 666.723Z" stroke="#9A6384" stroke-width="5"/>
<path d="M90.4186 676.994C91.7821 674.307 94.5396 672.614 97.5526 672.614H146.894C149.994 672.614 152.815 674.405 154.134 677.21L173.121 717.596C175.616 722.902 171.744 729 165.882 729H77.0582C71.0903 729 67.2235 722.702 69.9242 717.38L90.4186 676.994Z" fill="#DCB1CB"/>
<path d="M94.7446 672.614H149.027L149.868 698.703H92.6406L94.7446 672.614Z" fill="#DF9FC6"/>
<rect x="113.68" y="695.336" width="15.9901" height="5.89109" fill="#BD7FA5"/>
<path d="M88.4347 703.753L90.8911 711.312L98.8399 711.312L92.4091 715.985L94.8655 723.544L88.4347 718.872L82.004 723.544L84.4603 715.985L78.0296 711.312L85.9784 711.312L88.4347 703.753Z" fill="#C37DA7"/>
<path d="M274.209 662.993C275.841 667.285 274.811 672.708 270.711 678.278C266.641 683.808 259.829 689 251.159 692.296C242.489 695.592 233.948 696.234 227.232 694.805C220.468 693.364 216.096 689.994 214.465 685.703C212.833 681.411 213.863 675.988 217.963 670.418C222.033 664.888 228.845 659.696 237.515 656.4C246.185 653.105 254.726 652.462 261.442 653.892C268.206 655.332 272.578 658.702 274.209 662.993Z" stroke="#8C5A78" stroke-width="8"/>
<path d="M286.747 657.794C288.057 657.294 289.461 658.261 289.461 659.662V726.891C289.461 727.996 288.565 728.891 287.461 728.891H205.246C204.142 728.891 203.246 727.996 203.246 726.891V691.038C203.246 690.209 203.758 689.466 204.533 689.17L286.747 657.794Z" fill="#E398C4"/>
<path d="M261.988 677L268.275 694.966H288.618L272.16 706.069L278.446 724.034L261.988 712.931L245.53 724.034L251.817 706.069L235.359 694.966H255.702L261.988 677Z" fill="#DB82B7"/>
<path d="M363.332 662.27C363.332 670.563 354.755 678.155 342.98 678.155C331.204 678.155 322.627 670.563 322.627 662.27C322.627 653.977 331.204 646.385 342.98 646.385C354.755 646.385 363.332 653.977 363.332 662.27Z" stroke="#8F607D" stroke-width="5"/>
<rect x="313.988" y="665.674" width="57.9844" height="63.3254" rx="8" fill="#EAA8D0"/>
<path d="M316.717 673.674C316.717 669.256 320.299 665.674 324.717 665.674H361.244C365.662 665.674 369.244 669.256 369.244 673.674V691.549H316.717V673.674Z" fill="#DC91BE"/>
<rect x="337.863" y="684.74" width="10.9147" height="12.9374" fill="#DA7FB6"/>
<rect x="337.863" y="690.187" width="10.9147" height="2.04275" fill="#B8719B"/>
<path d="M327.29 669.078L329.052 674.489H334.751L330.14 677.833L331.901 683.244L327.29 679.9L322.679 683.244L324.44 677.833L319.829 674.489H325.529L327.29 669.078Z" fill="#C27CA6"/>
<rect x="38.5" y="729" width="359" height="29" rx="4" fill="#BA759F"/>
<path d="M24 793H85V841H24V793Z" fill="#B27C9C"/>
<path d="M351 793H412V841H351V793Z" fill="#B27C9C"/>
<path d="M1041 256C1041 253.791 1042.79 252 1045 252H1425C1427.21 252 1429 253.791 1429 256V793H1041V256Z" fill="#CB8DB2"/>
<rect x="1041" y="252" width="388" height="35" fill="#B6739C"/>
<rect x="1055.5" y="320" width="359" height="132" rx="4" fill="url(#paint3_linear_501_5)" fill-opacity="0.7"/>
<path d="M1140.11 390.407C1140.11 395.535 1137.09 400.451 1131.65 404.192C1126.22 407.925 1118.58 410.315 1110.02 410.315C1101.46 410.315 1093.82 407.925 1088.39 404.192C1082.95 400.451 1079.93 395.535 1079.93 390.407C1079.93 385.28 1082.95 380.364 1088.39 376.623C1093.82 372.89 1101.46 370.5 1110.02 370.5C1118.58 370.5 1126.22 372.89 1131.65 376.623C1137.09 380.364 1140.11 385.28 1140.11 390.407Z" stroke="#99587F" stroke-width="5"/>
<rect x="1065.21" y="390.407" width="89.6296" height="32.5926" rx="4" fill="#EDB2D5"/>
<rect x="1065.21" y="390.407" width="89.6296" height="13.5802" rx="4" fill="#E398C4"/>
<rect x="1093.72" y="401.272" width="33.2716" height="5.4321" fill="#E18FBF"/>
<path d="M1110.36 396.519L1112.28 401.723L1117.49 403.648L1112.28 405.574L1110.36 410.778L1108.43 405.574L1103.23 403.648L1108.43 401.723L1110.36 396.519Z" fill="#D175AC"/>
<path d="M1262.18 360.723C1262.18 371.415 1251.2 380.946 1236.48 380.946C1221.76 380.946 1210.79 371.415 1210.79 360.723C1210.79 350.031 1221.76 340.5 1236.48 340.5C1251.2 340.5 1262.18 350.031 1262.18 360.723Z" stroke="#936280" stroke-width="5"/>
<path d="M1205.23 370.994C1206.59 368.307 1209.35 366.614 1212.36 366.614H1261.7C1264.8 366.614 1267.62 368.405 1268.94 371.21L1287.93 411.596C1290.42 416.902 1286.55 423 1280.69 423H1191.86C1185.9 423 1182.03 416.702 1184.73 411.38L1205.23 370.994Z" fill="#EFC2DD"/>
<path d="M1209.55 366.614H1263.83L1264.67 392.703H1207.45L1209.55 366.614Z" fill="#E7AED1"/>
<rect x="1228.49" y="389.336" width="15.9901" height="5.89109" fill="#D98DBB"/>
<path d="M1203.24 397.753L1205.7 405.312L1213.65 405.312L1207.22 409.985L1209.67 417.544L1203.24 412.872L1196.81 417.544L1199.27 409.985L1192.84 405.312L1200.79 405.312L1203.24 397.753Z" fill="#D291B8"/>
<path d="M1389.02 356.993C1390.65 361.285 1389.62 366.708 1385.52 372.278C1381.45 377.808 1374.64 383 1365.97 386.296C1357.3 389.592 1348.76 390.234 1342.04 388.805C1335.28 387.364 1330.9 383.994 1329.27 379.703C1327.64 375.411 1328.67 369.988 1332.77 364.418C1336.84 358.888 1343.65 353.696 1352.32 350.4C1360.99 347.105 1369.53 346.462 1376.25 347.892C1383.01 349.332 1387.39 352.702 1389.02 356.993Z" stroke="#93617F" stroke-width="8"/>
<path d="M1401.56 351.794C1402.87 351.294 1404.27 352.261 1404.27 353.662V420.891C1404.27 421.996 1403.37 422.891 1402.27 422.891H1320.05C1318.95 422.891 1318.05 421.996 1318.05 420.891V385.038C1318.05 384.209 1318.57 383.466 1319.34 383.17L1401.56 351.794Z" fill="#EAA8D0"/>
<path d="M1376.8 371L1383.08 388.966H1403.43L1386.97 400.069L1393.25 418.034L1376.8 406.931L1360.34 418.034L1366.63 400.069L1350.17 388.966H1370.51L1376.8 371Z" fill="#D98DBB"/>
<rect x="1055.5" y="423" width="359" height="29" rx="4" fill="#BA759F"/>
<rect x="1055.5" y="473" width="359" height="132" rx="4" fill="url(#paint4_linear_501_5)" fill-opacity="0.7"/>
<path d="M1152.25 520.826C1152.25 524.689 1149.98 528.46 1145.75 531.371C1141.53 534.275 1135.57 536.151 1128.86 536.151C1122.15 536.151 1116.19 534.275 1111.97 531.371C1107.74 528.46 1105.47 524.689 1105.47 520.826C1105.47 516.962 1107.74 513.191 1111.97 510.28C1116.19 507.376 1122.15 505.5 1128.86 505.5C1135.57 505.5 1141.53 507.376 1145.75 510.28C1149.98 513.191 1152.25 516.962 1152.25 520.826Z" stroke="#915B7E" stroke-width="5"/>
<path d="M1083.32 552.852C1083.32 536.594 1101.8 527.897 1117.55 531.901C1124.52 533.671 1131.14 533.88 1137.87 532.545C1154.09 529.327 1173.3 537.801 1173.3 554.337V556C1173.3 567.046 1164.34 576 1153.3 576H1103.32C1092.28 576 1083.32 567.046 1083.32 556V552.852Z" fill="#EFC2DD"/>
<path d="M1096.05 529.496C1119.82 526.383 1138.5 527.421 1160.57 530.534L1161.09 540.374C1161.28 544.043 1158.95 547.372 1155.43 548.446L1129.16 556.477L1101.77 548.321C1098.38 547.311 1096.05 544.193 1096.05 540.654V529.496Z" fill="#E398C4"/>
<path d="M1129.16 547.14L1131.68 553.955L1138.5 556.477L1131.68 558.999L1129.16 565.814L1126.64 558.999L1119.82 556.477L1126.64 553.955L1129.16 547.14Z" fill="#D175AC"/>
<path d="M1243.14 528.267C1249.73 528.267 1255.77 526.901 1260.22 524.621C1264.6 522.382 1267.84 519.02 1267.84 514.883C1267.84 510.746 1264.6 507.384 1260.22 505.145C1255.77 502.865 1249.73 501.5 1243.14 501.5C1236.54 501.5 1230.5 502.865 1226.05 505.145C1221.67 507.384 1218.43 510.746 1218.43 514.883C1218.43 519.02 1221.67 522.382 1226.05 524.621C1230.5 526.901 1236.54 528.267 1243.14 528.267Z" stroke="#975C80" stroke-width="3"/>
<path d="M1288.97 547.706L1272 576H1215.41L1197.3 547.706H1288.97Z" fill="#EDB2D5"/>
<path d="M1288.97 547.706L1272 519.977H1215.41L1197.3 547.706H1288.97Z" fill="#EDB2D5"/>
<path d="M1265.21 551.667L1266.73 555.797L1270.86 557.325L1266.73 558.854L1265.21 562.984L1263.68 558.854L1259.55 557.325L1263.68 555.797L1265.21 551.667Z" fill="#E398C4"/>
<rect x="1215.41" y="519.977" width="56.5891" height="29.4264" fill="#DF9FC6"/>
<rect x="1232.38" y="547.139" width="23.7674" height="3.39535" fill="#CB87B0"/>
<rect x="1239.17" y="547.139" width="11.3178" height="7.92248" fill="#C07BA5"/>
<path d="M1329.04 530.22H1371.6L1372.26 550.676H1327.39L1329.04 530.22Z" fill="#8A8A8A"/>
<rect x="1343.88" y="548.037" width="12.5377" height="4.61916" fill="#656565"/>
<path d="M1371.63 523.466C1371.63 526.954 1369.58 530.385 1365.71 533.05C1361.85 535.708 1356.38 537.432 1350.22 537.432C1344.05 537.432 1338.59 535.708 1334.72 533.05C1330.85 530.385 1328.8 526.954 1328.8 523.466C1328.8 519.977 1330.85 516.547 1334.72 513.882C1338.59 511.224 1344.05 509.5 1350.22 509.5C1356.38 509.5 1361.85 511.224 1365.71 513.882C1369.58 516.547 1371.63 519.977 1371.63 523.466Z" stroke="#9E6687" stroke-width="5"/>
<ellipse cx="1349.83" cy="549.733" rx="36.8524" ry="26.2671" fill="#EDB8D7"/>
<ellipse cx="1350.22" cy="538.756" rx="27.8353" ry="16.858" fill="#D89BBF"/>
<path d="M1334.14 531.307L1335.9 536.725H1341.6L1336.99 540.073L1338.75 545.491L1334.14 542.143L1329.53 545.491L1331.29 540.073L1326.68 536.725H1332.38L1334.14 531.307Z" fill="#BA769E"/>
<ellipse cx="1350.22" cy="554.045" rx="6.66479" ry="3.92047" fill="#9C6686"/>
<rect x="1342.77" y="553.261" width="14.8978" height="1.56819" fill="#804E6C"/>
<rect x="1055.5" y="576" width="359" height="29" rx="4" fill="#BA759F"/>
<rect x="1055.5" y="626" width="359" height="132" rx="4" fill="url(#paint5_linear_501_5)" fill-opacity="0.7"/>
<path d="M1164.37 666.723C1164.37 677.415 1153.4 686.946 1138.68 686.946C1123.96 686.946 1112.98 677.415 1112.98 666.723C1112.98 656.031 1123.96 646.5 1138.68 646.5C1153.4 646.5 1164.37 656.031 1164.37 666.723Z" stroke="#9A6384" stroke-width="5"/>
<path d="M1107.42 676.994C1108.78 674.307 1111.54 672.614 1114.55 672.614H1163.89C1166.99 672.614 1169.81 674.405 1171.13 677.21L1190.12 717.596C1192.62 722.902 1188.74 729 1182.88 729H1094.06C1088.09 729 1084.22 722.702 1086.92 717.38L1107.42 676.994Z" fill="#DCB1CB"/>
<path d="M1111.74 672.614H1166.03L1166.87 698.703H1109.64L1111.74 672.614Z" fill="#DF9FC6"/>
<rect x="1130.68" y="695.336" width="15.9901" height="5.89109" fill="#BD7FA5"/>
<path d="M1105.43 703.753L1107.89 711.312L1115.84 711.312L1109.41 715.985L1111.87 723.544L1105.43 718.872L1099 723.544L1101.46 715.985L1095.03 711.312L1102.98 711.312L1105.43 703.753Z" fill="#C37DA7"/>
<path d="M1291.21 662.993C1292.84 667.285 1291.81 672.708 1287.71 678.278C1283.64 683.808 1276.83 689 1268.16 692.296C1259.49 695.592 1250.95 696.234 1244.23 694.805C1237.47 693.364 1233.1 689.994 1231.46 685.703C1229.83 681.411 1230.86 675.988 1234.96 670.418C1239.03 664.888 1245.84 659.696 1254.51 656.4C1263.19 653.105 1271.73 652.462 1278.44 653.892C1285.21 655.332 1289.58 658.702 1291.21 662.993Z" stroke="#8C5A78" stroke-width="8"/>
<path d="M1303.75 657.794C1305.06 657.294 1306.46 658.261 1306.46 659.662V726.891C1306.46 727.996 1305.57 728.891 1304.46 728.891H1222.25C1221.14 728.891 1220.25 727.996 1220.25 726.891V691.038C1220.25 690.209 1220.76 689.466 1221.53 689.17L1303.75 657.794Z" fill="#E398C4"/>
<path d="M1278.99 677L1285.27 694.966H1305.62L1289.16 706.069L1295.45 724.034L1278.99 712.931L1262.53 724.034L1268.82 706.069L1252.36 694.966H1272.7L1278.99 677Z" fill="#DB82B7"/>
<path d="M1380.33 662.27C1380.33 670.563 1371.76 678.155 1359.98 678.155C1348.2 678.155 1339.63 670.563 1339.63 662.27C1339.63 653.977 1348.2 646.385 1359.98 646.385C1371.76 646.385 1380.33 653.977 1380.33 662.27Z" stroke="#8F607D" stroke-width="5"/>
<rect x="1330.99" y="665.674" width="57.9844" height="63.3254" rx="8" fill="#EAA8D0"/>
<path d="M1333.72 673.674C1333.72 669.256 1337.3 665.674 1341.72 665.674H1378.24C1382.66 665.674 1386.24 669.256 1386.24 673.674V691.549H1333.72V673.674Z" fill="#DC91BE"/>
<rect x="1354.86" y="684.74" width="10.9147" height="12.9374" fill="#DA7FB6"/>
<rect x="1354.86" y="690.187" width="10.9147" height="2.04275" fill="#B8719B"/>
<path d="M1344.29 669.078L1346.05 674.489H1351.75L1347.14 677.833L1348.9 683.244L1344.29 679.9L1339.68 683.244L1341.44 677.833L1336.83 674.489H1342.53L1344.29 669.078Z" fill="#C27CA6"/>
<rect x="1055.5" y="729" width="359" height="29" rx="4" fill="#BA759F"/>
<path d="M1041 793H1102V841H1041V793Z" fill="#B27C9C"/>
<path d="M1368 793H1429V841H1368V793Z" fill="#B27C9C"/>
<path d="M785.909 445.193C785.909 471.302 760.114 493.385 727.051 493.385C693.989 493.385 668.193 471.302 668.193 445.193C668.193 419.083 693.989 397 727.051 397C760.114 397 785.909 419.083 785.909 445.193Z" stroke="#8F4772" stroke-width="6"/>
<path d="M639.543 448.21C639.992 446.435 641.589 445.193 643.42 445.193H808.568C810.389 445.193 811.981 446.423 812.439 448.185L837.376 543.992C838.035 546.526 836.123 549 833.505 549H619.14C616.533 549 614.622 546.545 615.263 544.017L639.543 448.21Z" fill="#FAC5E3"/>
<rect x="645.285" y="445.192" width="163.532" height="45.5046" fill="#EA95C4"/>
<rect x="710.697" y="486.431" width="11.3761" height="46.3172" fill="#B96096"/>
<path d="M712.83 540.468L710.697 532.748H716.385L712.83 540.468Z" fill="#B96096"/>
<path d="M719.941 540.468L716.386 532.748H722.074L719.941 540.468Z" fill="#B96096"/>
<rect x="732.027" y="486.431" width="11.3761" height="46.3172" fill="#B96096"/>
<path d="M734.16 540.468L732.027 532.748H737.715L734.16 540.468Z" fill="#B96096"/>
<path d="M741.271 540.468L737.716 532.748H743.404L741.271 540.468Z" fill="#B96096"/>
<path d="M727.684 483.031C728.35 482.646 728.35 481.684 727.684 481.299L688.023 458.401C687.356 458.016 686.523 458.497 686.523 459.267V505.063C686.523 505.833 687.356 506.314 688.023 505.929L727.684 483.031Z" fill="#CE6CA7"/>
<path d="M726.309 483.031C725.642 482.646 725.642 481.684 726.309 481.299L765.969 458.401C766.636 458.016 767.469 458.497 767.469 459.267V505.063C767.469 505.833 766.636 506.314 765.969 505.929L726.309 483.031Z" fill="#CE6CA7"/>
<circle cx="726.995" cy="482.165" r="10.9386" fill="#8F4772"/>
<path d="M727.05 470.789L730.315 479.093L739.137 482.165L730.315 485.238L727.05 493.541L723.785 485.238L714.963 482.165L723.785 479.093L727.05 470.789Z" fill="#070C2C"/>
<path d="M652 387L655.511 396.489L665 400L655.511 403.511L652 413L648.489 403.511L639 400L648.489 396.489L652 387Z" fill="#070C2C"/>
<path d="M598 496L602.321 507.679L614 512L602.321 516.321L598 528L593.679 516.321L582 512L593.679 507.679L598 496Z" fill="#070C2C"/>
<path d="M838.5 417L843.497 430.503L857 435.5L843.497 440.497L838.5 454L833.503 440.497L820 435.5L833.503 430.503L838.5 417Z" fill="#070C2C"/>
<rect x="505" y="549" width="429" height="63" fill="#DB6EB0"/>
<rect x="500" y="602" width="439" height="19" fill="#B35A90"/>
<rect x="703.5" y="621" width="33" height="219" fill="#C4659E"/>
<rect x="694.5" y="821" width="50" height="19" fill="#AD558B"/>
</g>
<defs>
<linearGradient id="paint0_linear_501_5" x1="218" y1="320" x2="218" y2="452" gradientUnits="userSpaceOnUse">
<stop stop-color="#AF82A7"/>
<stop offset="1" stop-color="#B0568D"/>
</linearGradient>
<linearGradient id="paint1_linear_501_5" x1="218" y1="473" x2="218" y2="605" gradientUnits="userSpaceOnUse">
<stop stop-color="#AF82A7"/>
<stop offset="1" stop-color="#B0568D"/>
</linearGradient>
<linearGradient id="paint2_linear_501_5" x1="218" y1="626" x2="218" y2="758" gradientUnits="userSpaceOnUse">
<stop stop-color="#AF82A7"/>
<stop offset="1" stop-color="#B0568D"/>
</linearGradient>
<linearGradient id="paint3_linear_501_5" x1="1235" y1="320" x2="1235" y2="452" gradientUnits="userSpaceOnUse">
<stop stop-color="#AF82A7"/>
<stop offset="1" stop-color="#B0568D"/>
</linearGradient>
<linearGradient id="paint4_linear_501_5" x1="1235" y1="473" x2="1235" y2="605" gradientUnits="userSpaceOnUse">
<stop stop-color="#AF82A7"/>
<stop offset="1" stop-color="#B0568D"/>
</linearGradient>
<linearGradient id="paint5_linear_501_5" x1="1235" y1="626" x2="1235" y2="758" gradientUnits="userSpaceOnUse">
<stop stop-color="#AF82A7"/>
<stop offset="1" stop-color="#B0568D"/>
</linearGradient>
<clipPath id="clip0_501_5">
<rect width="1440" height="1024" fill="white"/>
</clipPath>
</defs>
</svg>
