<svg width="1440" height="1024" viewBox="0 0 1440 1024" fill="none" xmlns="http://www.w3.org/2000/svg">
<g clip-path="url(#clip0_484_523)">
<rect width="1440" height="1024" fill="#FFF2F9"/>
<path opacity="0.5" d="M663.669 0H780.771L918 840H524L663.669 0Z" fill="#FF3AAD" fill-opacity="0.2"/>
<path opacity="0.5" d="M674.5 0H770.5L883 840H560L674.5 0Z" fill="#FFEBF7"/>
<path d="M500.883 68.6406V88.1719H510.648V93.0547H520.414V88.1719H525.297V83.2891H530.18V78.4062H535.062V73.5234H539.945V63.7578H510.648V68.6406H500.883ZM530.18 88.1719V93.0547H554.594V88.1719H564.359V83.2891H569.242V68.6406H554.594V73.5234H549.711V78.4062H554.594V83.2891H549.477V78.4062H539.945V83.2891H535.062V88.1719H530.18ZM515.531 127.234H510.648V102.82H515.531V97.9375H510.531V93.0547H500.883V88.2891H496V68.6406H500.766V63.7578H510.531V58.875H540.062V63.7578H544.828V68.6406H549.711V63.7578H569.359V68.6406H574.125V83.2891H569.359V88.1719H564.477V93.0547H554.711V97.9375H525.297V102.82H520.414V127.234H525.297V132.117H539.945V127.234H544.828V122.352H549.711V107.703H535.062V112.586H530.297V117.469H535.062V122.352H530.18V117.469H525.297V112.586H530.18V107.703H534.945V102.82H549.828V107.703H554.594V127.234H549.711V132.117H544.828V137H520.414V132.117H515.531V127.234ZM566.312 132.117V112.586H571.195V107.703H576.078V102.82H580.844V97.9375H590.727V107.703H585.844V102.82H580.961V117.469H576.078V132.117H580.961V127.234H585.844V122.352H590.727V112.586H595.609V102.82H600.492V97.9375H610.258V102.82H605.375V112.586H600.492V122.352H595.609V132.117H605.375V127.234H610.258V117.469H615.023V112.586H620.023V117.469H615.141V127.352H610.258V132.234H605.375V137H595.492V132.117H585.844V137H571.195V132.117H566.312ZM620.062 132.117V117.469H624.945V102.82H629.828V93.0547H634.711V83.2891H644.477V93.0547H639.594V97.9375H649.359V102.82H634.711V117.469H629.828V132.117H639.594V127.234H644.477V117.469H649.359V112.586H654.242V117.586H649.359V127.352H644.477V132.234H639.594V137H624.945V132.117H620.062ZM693.227 137V132.117H688.344V127.234H683.578V112.586H688.461V102.82H683.578V88.0547H688.461V83.2891H693.227V78.4062H698.109V73.5234H702.992V68.6406H712.758V63.7578H698.227V68.6406H688.461V73.5234H683.578V68.5234H688.461V63.7578H698.109V58.875H712.875V63.7578H747.055V68.6406H761.703V73.5234H786V68.6406H791V73.5234H786.117V78.4062H776.352V83.2891H761.703V78.4062H756.82V83.2891H751.938V88.1719H747.055V102.82H756.82V97.9375H761.703V93.0547H766.469V88.1719H771.469V93.0547H766.586V102.82H761.703V112.586H756.938V117.469H751.938V112.586H756.82V107.703H742.172V122.352H737.289V127.234H732.406V132.117H727.523V137H717.875V141.883H698.109V137H693.227ZM688.461 102.703H693.344V97.9375H698.227V93.0547H707.992V88.1719H722.641V73.5234H717.758V68.6406H712.875V73.5234H703.109V78.4062H698.227V83.2891H693.344V88.1719H688.461V102.703ZM727.523 97.9375H732.406V102.82H737.289V93.0547H742.172V88.1719H746.938V83.2891H751.82V78.4062H747.055V73.5234H732.406V68.6406H722.758V73.5234H727.523V88.1719H722.758V93.0547H727.523V97.9375ZM693.344 132.117H698.227V137H717.758V132.117H722.641V127.234H727.523V117.586H722.641V122.352H717.875V127.234H712.992V132.117H702.992V127.234H698.109V122.352H693.344V112.703H688.461V127.234H693.344V132.117ZM703.109 127.234H712.875V122.352H717.758V117.469H722.641V107.586H727.523V98.0547H722.641V102.82H717.758V107.703H708.109V112.586H698.227V122.352H703.109V127.234ZM693.344 107.703H707.992V102.82H717.758V93.0547H708.109V97.9375H698.344V102.82H693.344V107.703ZM727.523 117.469H732.406V107.703H727.523V117.469ZM777.328 132.117V117.469H782.211V107.703H787.094V97.9375H796.859V107.703H791.977V122.352H787.094V132.117H796.859V127.234H801.742V117.469H806.508V112.586H811.508V117.469H806.625V127.352H801.742V132.234H796.859V137H782.211V132.117H777.328ZM801.742 93.0547H791.977V83.2891H801.742V93.0547ZM816.43 127.234V132.117H831.078V122.352H835.961V112.586H840.844V102.82H831.078V107.703H826.195V117.469H821.312V127.234H816.43ZM821.43 151.648H826.195V146.766H821.43V151.648ZM811.547 166.18H816.43V161.414H821.312V151.648H816.43V156.531H811.547V166.18ZM811.547 166.297H806.664V156.531H811.43V151.648H816.312V146.766H821.312V141.883H826.195V137H816.312V132.117H811.547V117.469H816.43V107.703H821.312V102.82H826.195V97.9375H840.961V102.82H845.727V97.9375H855.492V102.82H850.609V107.703H845.727V122.352H840.844V132.117H835.961V141.883H840.844V137H845.727V127.234H850.609V117.469H855.492V112.586H860.375V117.586H855.492V127.352H850.609V137.117H845.727V142H840.844V146.766H831.078V156.648H826.195V161.531H821.312V166.297H816.43V171.18H811.547V166.297ZM860.375 137V122.352H865.258V107.703H870.141V93.0547H875.023V78.4062H879.906V68.6406H889.672V78.4062H884.789V93.0547H879.906V102.82H884.672V97.9375H894.555V102.82H899.438V112.586H894.555V122.352H889.672V132.117H894.555V127.234H899.438V117.469H904.32V112.586H909.203V117.586H904.32V127.352H899.438V132.234H894.555V137H884.789V132.117H879.906V122.352H884.789V112.586H889.672V102.82H884.789V107.703H879.906V112.586H875.023V122.352H870.141V137H860.375ZM909.203 132.117V117.469H914.086V102.82H918.969V93.0547H923.852V83.2891H933.617V93.0547H928.734V97.9375H938.5V102.82H923.852V117.469H918.969V132.117H928.734V127.234H933.617V117.469H938.5V112.586H943.383V117.586H938.5V127.352H933.617V132.234H928.734V137H914.086V132.117H909.203Z" fill="#282326"/>
<rect x="-2" y="843" width="1444" height="183" fill="#F5BCDE" stroke="#E4A1CA" stroke-width="4"/>
<path d="M24 256C24 253.791 25.7909 252 28 252H408C410.209 252 412 253.791 412 256V793H24V256Z" fill="#CB8DB2"/>
<rect x="24" y="252" width="388" height="35" fill="#B6739C"/>
<rect x="38.5" y="320" width="359" height="132" rx="4" fill="url(#paint0_linear_484_523)" fill-opacity="0.7"/>
<path d="M123.113 390.407C123.113 395.535 120.092 400.451 114.65 404.192C109.22 407.925 101.58 410.315 93.0203 410.315C84.4606 410.315 76.8209 407.925 71.3902 404.192C65.9485 400.451 62.9277 395.535 62.9277 390.407C62.9277 385.28 65.9485 380.364 71.3902 376.623C76.8209 372.89 84.4606 370.5 93.0203 370.5C101.58 370.5 109.22 372.89 114.65 376.623C120.092 380.364 123.113 385.28 123.113 390.407Z" stroke="#99587F" stroke-width="5"/>
<rect x="48.2051" y="390.407" width="89.6296" height="32.5926" rx="4" fill="#EDB2D5"/>
<rect x="48.2051" y="390.407" width="89.6296" height="13.5802" rx="4" fill="#E398C4"/>
<rect x="76.7236" y="401.272" width="33.2716" height="5.4321" fill="#E18FBF"/>
<path d="M93.3591 396.519L95.2848 401.723L100.489 403.648L95.2848 405.574L93.3591 410.778L91.4335 405.574L86.2295 403.648L91.4335 401.723L93.3591 396.519Z" fill="#D175AC"/>
<path d="M245.177 360.723C245.177 371.415 234.205 380.946 219.484 380.946C204.764 380.946 193.791 371.415 193.791 360.723C193.791 350.031 204.764 340.5 219.484 340.5C234.205 340.5 245.177 350.031 245.177 360.723Z" stroke="#936280" stroke-width="5"/>
<path d="M188.226 370.994C189.59 368.307 192.347 366.614 195.36 366.614H244.702C247.802 366.614 250.622 368.405 251.941 371.21L270.929 411.596C273.423 416.902 269.552 423 263.689 423H174.866C168.898 423 165.031 416.702 167.732 411.38L188.226 370.994Z" fill="#EFC2DD"/>
<path d="M192.552 366.614H246.834L247.676 392.703H190.448L192.552 366.614Z" fill="#E7AED1"/>
<rect x="211.487" y="389.336" width="15.9901" height="5.89109" fill="#D98DBB"/>
<path d="M186.242 397.753L188.699 405.312L196.647 405.312L190.217 409.985L192.673 417.544L186.242 412.872L179.812 417.544L182.268 409.985L175.837 405.312L183.786 405.312L186.242 397.753Z" fill="#D291B8"/>
<path d="M372.017 356.993C373.648 361.285 372.619 366.708 368.519 372.278C364.448 377.808 357.637 383 348.967 386.296C340.296 389.592 331.756 390.234 325.04 388.805C318.276 387.364 313.904 383.994 312.272 379.703C310.641 375.411 311.671 369.988 315.77 364.418C319.841 358.888 326.652 353.696 335.323 350.4C343.993 347.105 352.533 346.462 359.25 347.892C366.014 349.332 370.386 352.702 372.017 356.993Z" stroke="#93617F" stroke-width="8"/>
<path d="M384.554 351.794C385.863 351.294 387.267 352.261 387.267 353.662V420.891C387.267 421.996 386.372 422.891 385.267 422.891H303.053C301.948 422.891 301.053 421.996 301.053 420.891V385.038C301.053 384.209 301.565 383.466 302.34 383.17L384.554 351.794Z" fill="#EAA8D0"/>
<path d="M359.795 371L366.081 388.966H386.425L369.967 400.069L376.253 418.034L359.795 406.931L343.337 418.034L349.623 400.069L333.165 388.966H353.509L359.795 371Z" fill="#D98DBB"/>
<rect x="38.5" y="423" width="359" height="29" rx="4" fill="#BA759F"/>
<rect x="38.5" y="473" width="359" height="132" rx="4" fill="url(#paint1_linear_484_523)" fill-opacity="0.7"/>
<path d="M135.25 520.826C135.25 524.689 132.977 528.46 128.749 531.371C124.532 534.275 118.568 536.151 111.86 536.151C105.152 536.151 99.1888 534.275 94.9713 531.371C90.743 528.46 88.4707 524.689 88.4707 520.826C88.4707 516.962 90.743 513.191 94.9713 510.28C99.1888 507.376 105.152 505.5 111.86 505.5C118.568 505.5 124.532 507.376 128.749 510.28C132.977 513.191 135.25 516.962 135.25 520.826Z" stroke="#915B7E" stroke-width="5"/>
<path d="M66.3223 552.852C66.3223 536.594 84.7959 527.897 100.554 531.901C107.518 533.671 114.14 533.88 120.872 532.545C137.092 529.327 156.299 537.801 156.299 554.337V556C156.299 567.046 147.345 576 136.299 576H86.3223C75.2766 576 66.3223 567.046 66.3223 556V552.852Z" fill="#EFC2DD"/>
<path d="M79.0547 529.496C102.822 526.383 121.497 527.421 143.566 530.534L144.086 540.374C144.279 544.043 141.949 547.372 138.435 548.446L112.159 556.477L84.7714 548.321C81.3798 547.311 79.0547 544.193 79.0547 540.654V529.496Z" fill="#E398C4"/>
<path d="M112.159 547.14L114.681 553.955L121.497 556.477L114.681 558.999L112.159 565.814L109.638 558.999L102.822 556.477L109.638 553.955L112.159 547.14Z" fill="#D175AC"/>
<path d="M226.135 528.267C232.73 528.267 238.774 526.901 243.225 524.621C247.596 522.382 250.837 519.02 250.837 514.883C250.837 510.746 247.596 507.384 243.225 505.145C238.774 502.865 232.73 501.5 226.135 501.5C219.541 501.5 213.496 502.865 209.045 505.145C204.674 507.384 201.434 510.746 201.434 514.883C201.434 519.02 204.674 522.382 209.045 524.621C213.496 526.901 219.541 528.267 226.135 528.267Z" stroke="#975C80" stroke-width="3"/>
<path d="M271.973 547.706L254.996 576H198.407L180.299 547.706H271.973Z" fill="#EDB2D5"/>
<path d="M271.973 547.706L254.996 519.977H198.407L180.299 547.706H271.973Z" fill="#EDB2D5"/>
<path d="M248.206 551.667L249.734 555.797L253.865 557.325L249.734 558.854L248.206 562.984L246.677 558.854L242.547 557.325L246.677 555.797L248.206 551.667Z" fill="#E398C4"/>
<rect x="198.406" y="519.977" width="56.5891" height="29.4264" fill="#DF9FC6"/>
<rect x="215.383" y="547.139" width="23.7674" height="3.39535" fill="#CB87B0"/>
<rect x="222.174" y="547.139" width="11.3178" height="7.92248" fill="#C07BA5"/>
<path d="M312.04 530.22H354.603L355.263 550.676H310.391L312.04 530.22Z" fill="#8A8A8A"/>
<rect x="326.887" y="548.037" width="12.5377" height="4.61916" fill="#656565"/>
<path d="M354.632 523.466C354.632 526.954 352.581 530.385 348.71 533.05C344.85 535.708 339.38 537.432 333.218 537.432C327.055 537.432 321.585 535.708 317.725 533.05C313.854 530.385 311.803 526.954 311.803 523.466C311.803 519.977 313.854 516.547 317.725 513.882C321.585 511.224 327.055 509.5 333.218 509.5C339.38 509.5 344.85 511.224 348.71 513.882C352.581 516.547 354.632 519.977 354.632 523.466Z" stroke="#9E6687" stroke-width="5"/>
<ellipse cx="332.826" cy="549.733" rx="36.8524" ry="26.2671" fill="#EDB8D7"/>
<ellipse cx="333.217" cy="538.756" rx="27.8353" ry="16.858" fill="#D89BBF"/>
<path d="M317.144 531.307L318.904 536.725H324.601L319.992 540.073L321.752 545.491L317.144 542.143L312.535 545.491L314.295 540.073L309.686 536.725H315.383L317.144 531.307Z" fill="#BA769E"/>
<ellipse cx="333.219" cy="554.045" rx="6.66479" ry="3.92047" fill="#9C6686"/>
<rect x="325.77" y="553.261" width="14.8978" height="1.56819" fill="#804E6C"/>
<rect x="38.5" y="576" width="359" height="29" rx="4" fill="#BA759F"/>
<rect x="38.5" y="626" width="359" height="132" rx="4" fill="url(#paint2_linear_484_523)" fill-opacity="0.7"/>
<path d="M147.37 666.723C147.37 677.415 136.397 686.946 121.676 686.946C106.956 686.946 95.9834 677.415 95.9834 666.723C95.9834 656.031 106.956 646.5 121.676 646.5C136.397 646.5 147.37 656.031 147.37 666.723Z" stroke="#9A6384" stroke-width="5"/>
<path d="M90.4186 676.994C91.7821 674.307 94.5396 672.614 97.5526 672.614H146.894C149.994 672.614 152.815 674.405 154.134 677.21L173.121 717.596C175.616 722.902 171.744 729 165.882 729H77.0582C71.0903 729 67.2235 722.702 69.9242 717.38L90.4186 676.994Z" fill="#DCB1CB"/>
<path d="M94.7446 672.614H149.027L149.868 698.703H92.6406L94.7446 672.614Z" fill="#DF9FC6"/>
<rect x="113.68" y="695.336" width="15.9901" height="5.89109" fill="#BD7FA5"/>
<path d="M88.4347 703.753L90.8911 711.312L98.8399 711.312L92.4091 715.985L94.8655 723.544L88.4347 718.872L82.004 723.544L84.4603 715.985L78.0296 711.312L85.9784 711.312L88.4347 703.753Z" fill="#C37DA7"/>
<path d="M274.209 662.993C275.841 667.285 274.811 672.708 270.711 678.278C266.641 683.808 259.829 689 251.159 692.296C242.489 695.592 233.948 696.234 227.232 694.805C220.468 693.364 216.096 689.994 214.465 685.703C212.833 681.411 213.863 675.988 217.963 670.418C222.033 664.888 228.845 659.696 237.515 656.4C246.185 653.105 254.726 652.462 261.442 653.892C268.206 655.332 272.578 658.702 274.209 662.993Z" stroke="#8C5A78" stroke-width="8"/>
<path d="M286.747 657.794C288.056 657.294 289.46 658.261 289.46 659.662V726.891C289.46 727.996 288.564 728.891 287.46 728.891H205.245C204.141 728.891 203.245 727.996 203.245 726.891V691.038C203.245 690.209 203.757 689.466 204.532 689.17L286.747 657.794Z" fill="#E398C4"/>
<path d="M261.987 677L268.274 694.966H288.617L272.159 706.069L278.445 724.034L261.987 712.931L245.529 724.034L251.816 706.069L235.358 694.966H255.701L261.987 677Z" fill="#DB82B7"/>
<path d="M363.332 662.27C363.332 670.563 354.755 678.155 342.98 678.155C331.204 678.155 322.627 670.563 322.627 662.27C322.627 653.977 331.204 646.385 342.98 646.385C354.755 646.385 363.332 653.977 363.332 662.27Z" stroke="#8F607D" stroke-width="5"/>
<rect x="313.987" y="665.674" width="57.9844" height="63.3254" rx="8" fill="#EAA8D0"/>
<path d="M316.716 673.674C316.716 669.256 320.298 665.674 324.716 665.674H361.243C365.661 665.674 369.243 669.256 369.243 673.674V691.549H316.716V673.674Z" fill="#DC91BE"/>
<rect x="337.862" y="684.74" width="10.9147" height="12.9374" fill="#DA7FB6"/>
<rect x="337.862" y="690.187" width="10.9147" height="2.04275" fill="#B8719B"/>
<path d="M327.289 669.078L329.051 674.489H334.75L330.139 677.833L331.9 683.244L327.289 679.9L322.678 683.244L324.439 677.833L319.828 674.489H325.528L327.289 669.078Z" fill="#C27CA6"/>
<rect x="38.5" y="729" width="359" height="29" rx="4" fill="#BA759F"/>
<path d="M24 793H85V841H24V793Z" fill="#B27C9C"/>
<path d="M351 793H412V841H351V793Z" fill="#B27C9C"/>
<path d="M1041 256C1041 253.791 1042.79 252 1045 252H1425C1427.21 252 1429 253.791 1429 256V793H1041V256Z" fill="#CB8DB2"/>
<rect x="1041" y="252" width="388" height="35" fill="#B6739C"/>
<rect x="1055.5" y="320" width="359" height="132" rx="4" fill="url(#paint3_linear_484_523)" fill-opacity="0.7"/>
<path d="M1140.11 390.407C1140.11 395.535 1137.09 400.451 1131.65 404.192C1126.22 407.925 1118.58 410.315 1110.02 410.315C1101.46 410.315 1093.82 407.925 1088.39 404.192C1082.95 400.451 1079.93 395.535 1079.93 390.407C1079.93 385.28 1082.95 380.364 1088.39 376.623C1093.82 372.89 1101.46 370.5 1110.02 370.5C1118.58 370.5 1126.22 372.89 1131.65 376.623C1137.09 380.364 1140.11 385.28 1140.11 390.407Z" stroke="#99587F" stroke-width="5"/>
<rect x="1065.21" y="390.407" width="89.6296" height="32.5926" rx="4" fill="#EDB2D5"/>
<rect x="1065.21" y="390.407" width="89.6296" height="13.5802" rx="4" fill="#E398C4"/>
<rect x="1093.72" y="401.272" width="33.2716" height="5.4321" fill="#E18FBF"/>
<path d="M1110.36 396.519L1112.28 401.723L1117.49 403.648L1112.28 405.574L1110.36 410.778L1108.43 405.574L1103.23 403.648L1108.43 401.723L1110.36 396.519Z" fill="#D175AC"/>
<path d="M1262.18 360.723C1262.18 371.415 1251.2 380.946 1236.48 380.946C1221.76 380.946 1210.79 371.415 1210.79 360.723C1210.79 350.031 1221.76 340.5 1236.48 340.5C1251.2 340.5 1262.18 350.031 1262.18 360.723Z" stroke="#936280" stroke-width="5"/>
<path d="M1205.23 370.994C1206.59 368.307 1209.35 366.614 1212.36 366.614H1261.7C1264.8 366.614 1267.62 368.405 1268.94 371.21L1287.93 411.596C1290.42 416.902 1286.55 423 1280.69 423H1191.86C1185.9 423 1182.03 416.702 1184.73 411.38L1205.23 370.994Z" fill="#EFC2DD"/>
<path d="M1209.55 366.614H1263.83L1264.67 392.703H1207.45L1209.55 366.614Z" fill="#E7AED1"/>
<rect x="1228.49" y="389.336" width="15.9901" height="5.89109" fill="#D98DBB"/>
<path d="M1203.24 397.753L1205.7 405.312L1213.65 405.312L1207.22 409.985L1209.67 417.544L1203.24 412.872L1196.81 417.544L1199.27 409.985L1192.84 405.312L1200.79 405.312L1203.24 397.753Z" fill="#D291B8"/>
<path d="M1389.02 356.993C1390.65 361.285 1389.62 366.708 1385.52 372.278C1381.45 377.808 1374.64 383 1365.97 386.296C1357.3 389.592 1348.76 390.234 1342.04 388.805C1335.28 387.364 1330.9 383.994 1329.27 379.703C1327.64 375.411 1328.67 369.988 1332.77 364.418C1336.84 358.888 1343.65 353.696 1352.32 350.4C1360.99 347.105 1369.53 346.462 1376.25 347.892C1383.01 349.332 1387.39 352.702 1389.02 356.993Z" stroke="#93617F" stroke-width="8"/>
<path d="M1401.56 351.794C1402.87 351.294 1404.27 352.261 1404.27 353.662V420.891C1404.27 421.996 1403.37 422.891 1402.27 422.891H1320.05C1318.95 422.891 1318.05 421.996 1318.05 420.891V385.038C1318.05 384.209 1318.57 383.466 1319.34 383.17L1401.56 351.794Z" fill="#EAA8D0"/>
<path d="M1376.8 371L1383.08 388.966H1403.43L1386.97 400.069L1393.25 418.034L1376.8 406.931L1360.34 418.034L1366.63 400.069L1350.17 388.966H1370.51L1376.8 371Z" fill="#D98DBB"/>
<rect x="1055.5" y="423" width="359" height="29" rx="4" fill="#BA759F"/>
<rect x="1055.5" y="473" width="359" height="132" rx="4" fill="url(#paint4_linear_484_523)" fill-opacity="0.7"/>
<path d="M1152.25 520.826C1152.25 524.689 1149.98 528.46 1145.75 531.371C1141.53 534.275 1135.57 536.151 1128.86 536.151C1122.15 536.151 1116.19 534.275 1111.97 531.371C1107.74 528.46 1105.47 524.689 1105.47 520.826C1105.47 516.962 1107.74 513.191 1111.97 510.28C1116.19 507.376 1122.15 505.5 1128.86 505.5C1135.57 505.5 1141.53 507.376 1145.75 510.28C1149.98 513.191 1152.25 516.962 1152.25 520.826Z" stroke="#915B7E" stroke-width="5"/>
<path d="M1083.32 552.852C1083.32 536.594 1101.8 527.897 1117.55 531.901C1124.52 533.671 1131.14 533.88 1137.87 532.545C1154.09 529.327 1173.3 537.801 1173.3 554.337V556C1173.3 567.046 1164.34 576 1153.3 576H1103.32C1092.28 576 1083.32 567.046 1083.32 556V552.852Z" fill="#EFC2DD"/>
<path d="M1096.05 529.496C1119.82 526.383 1138.5 527.421 1160.57 530.534L1161.09 540.374C1161.28 544.043 1158.95 547.372 1155.43 548.446L1129.16 556.477L1101.77 548.321C1098.38 547.311 1096.05 544.193 1096.05 540.654V529.496Z" fill="#E398C4"/>
<path d="M1129.16 547.14L1131.68 553.955L1138.5 556.477L1131.68 558.999L1129.16 565.814L1126.64 558.999L1119.82 556.477L1126.64 553.955L1129.16 547.14Z" fill="#D175AC"/>
<path d="M1243.14 528.267C1249.73 528.267 1255.77 526.901 1260.22 524.621C1264.6 522.382 1267.84 519.02 1267.84 514.883C1267.84 510.746 1264.6 507.384 1260.22 505.145C1255.77 502.865 1249.73 501.5 1243.14 501.5C1236.54 501.5 1230.5 502.865 1226.05 505.145C1221.67 507.384 1218.43 510.746 1218.43 514.883C1218.43 519.02 1221.67 522.382 1226.05 524.621C1230.5 526.901 1236.54 528.267 1243.14 528.267Z" stroke="#975C80" stroke-width="3"/>
<path d="M1288.97 547.706L1272 576H1215.41L1197.3 547.706H1288.97Z" fill="#EDB2D5"/>
<path d="M1288.97 547.706L1272 519.977H1215.41L1197.3 547.706H1288.97Z" fill="#EDB2D5"/>
<path d="M1265.21 551.667L1266.73 555.797L1270.86 557.325L1266.73 558.854L1265.21 562.984L1263.68 558.854L1259.55 557.325L1263.68 555.797L1265.21 551.667Z" fill="#E398C4"/>
<rect x="1215.41" y="519.977" width="56.5891" height="29.4264" fill="#DF9FC6"/>
<rect x="1232.38" y="547.139" width="23.7674" height="3.39535" fill="#CB87B0"/>
<rect x="1239.17" y="547.139" width="11.3178" height="7.92248" fill="#C07BA5"/>
<path d="M1329.04 530.22H1371.6L1372.26 550.676H1327.39L1329.04 530.22Z" fill="#8A8A8A"/>
<rect x="1343.88" y="548.037" width="12.5377" height="4.61916" fill="#656565"/>
<path d="M1371.63 523.466C1371.63 526.954 1369.58 530.385 1365.71 533.05C1361.85 535.708 1356.38 537.432 1350.22 537.432C1344.05 537.432 1338.59 535.708 1334.72 533.05C1330.85 530.385 1328.8 526.954 1328.8 523.466C1328.8 519.977 1330.85 516.547 1334.72 513.882C1338.59 511.224 1344.05 509.5 1350.22 509.5C1356.38 509.5 1361.85 511.224 1365.71 513.882C1369.58 516.547 1371.63 519.977 1371.63 523.466Z" stroke="#9E6687" stroke-width="5"/>
<ellipse cx="1349.83" cy="549.733" rx="36.8524" ry="26.2671" fill="#EDB8D7"/>
<ellipse cx="1350.22" cy="538.756" rx="27.8353" ry="16.858" fill="#D89BBF"/>
<path d="M1334.14 531.307L1335.9 536.725H1341.6L1336.99 540.073L1338.75 545.491L1334.14 542.143L1329.53 545.491L1331.29 540.073L1326.68 536.725H1332.38L1334.14 531.307Z" fill="#BA769E"/>
<ellipse cx="1350.22" cy="554.045" rx="6.66479" ry="3.92047" fill="#9C6686"/>
<rect x="1342.77" y="553.261" width="14.8978" height="1.56819" fill="#804E6C"/>
<rect x="1055.5" y="576" width="359" height="29" rx="4" fill="#BA759F"/>
<rect x="1055.5" y="626" width="359" height="132" rx="4" fill="url(#paint5_linear_484_523)" fill-opacity="0.7"/>
<path d="M1164.37 666.723C1164.37 677.415 1153.4 686.946 1138.68 686.946C1123.96 686.946 1112.98 677.415 1112.98 666.723C1112.98 656.031 1123.96 646.5 1138.68 646.5C1153.4 646.5 1164.37 656.031 1164.37 666.723Z" stroke="#9A6384" stroke-width="5"/>
<path d="M1107.42 676.994C1108.78 674.307 1111.54 672.614 1114.55 672.614H1163.89C1166.99 672.614 1169.81 674.405 1171.13 677.21L1190.12 717.596C1192.62 722.902 1188.74 729 1182.88 729H1094.06C1088.09 729 1084.22 722.702 1086.92 717.38L1107.42 676.994Z" fill="#DCB1CB"/>
<path d="M1111.74 672.614H1166.03L1166.87 698.703H1109.64L1111.74 672.614Z" fill="#DF9FC6"/>
<rect x="1130.68" y="695.336" width="15.9901" height="5.89109" fill="#BD7FA5"/>
<path d="M1105.43 703.753L1107.89 711.312L1115.84 711.312L1109.41 715.985L1111.87 723.544L1105.43 718.872L1099 723.544L1101.46 715.985L1095.03 711.312L1102.98 711.312L1105.43 703.753Z" fill="#C37DA7"/>
<path d="M1291.21 662.993C1292.84 667.285 1291.81 672.708 1287.71 678.278C1283.64 683.808 1276.83 689 1268.16 692.296C1259.49 695.592 1250.95 696.234 1244.23 694.805C1237.47 693.364 1233.1 689.994 1231.46 685.703C1229.83 681.411 1230.86 675.988 1234.96 670.418C1239.03 664.888 1245.84 659.696 1254.51 656.4C1263.19 653.105 1271.73 652.462 1278.44 653.892C1285.21 655.332 1289.58 658.702 1291.21 662.993Z" stroke="#8C5A78" stroke-width="8"/>
<path d="M1303.75 657.794C1305.06 657.294 1306.46 658.261 1306.46 659.662V726.891C1306.46 727.996 1305.57 728.891 1304.46 728.891H1222.25C1221.14 728.891 1220.25 727.996 1220.25 726.891V691.038C1220.25 690.209 1220.76 689.466 1221.53 689.17L1303.75 657.794Z" fill="#E398C4"/>
<path d="M1278.99 677L1285.27 694.966H1305.62L1289.16 706.069L1295.45 724.034L1278.99 712.931L1262.53 724.034L1268.82 706.069L1252.36 694.966H1272.7L1278.99 677Z" fill="#DB82B7"/>
<path d="M1380.33 662.27C1380.33 670.563 1371.76 678.155 1359.98 678.155C1348.2 678.155 1339.63 670.563 1339.63 662.27C1339.63 653.977 1348.2 646.385 1359.98 646.385C1371.76 646.385 1380.33 653.977 1380.33 662.27Z" stroke="#8F607D" stroke-width="5"/>
<rect x="1330.99" y="665.674" width="57.9844" height="63.3254" rx="8" fill="#EAA8D0"/>
<path d="M1333.72 673.674C1333.72 669.256 1337.3 665.674 1341.72 665.674H1378.24C1382.66 665.674 1386.24 669.256 1386.24 673.674V691.549H1333.72V673.674Z" fill="#DC91BE"/>
<rect x="1354.86" y="684.74" width="10.9147" height="12.9374" fill="#DA7FB6"/>
<rect x="1354.86" y="690.187" width="10.9147" height="2.04275" fill="#B8719B"/>
<path d="M1344.29 669.078L1346.05 674.489H1351.75L1347.14 677.833L1348.9 683.244L1344.29 679.9L1339.68 683.244L1341.44 677.833L1336.83 674.489H1342.53L1344.29 669.078Z" fill="#C27CA6"/>
<rect x="1055.5" y="729" width="359" height="29" rx="4" fill="#BA759F"/>
<path d="M1041 793H1102V841H1041V793Z" fill="#B27C9C"/>
<path d="M1368 793H1429V841H1368V793Z" fill="#B27C9C"/>
<path d="M785.909 445.193C785.909 471.302 760.114 493.385 727.051 493.385C693.989 493.385 668.193 471.302 668.193 445.193C668.193 419.083 693.989 397 727.051 397C760.114 397 785.909 419.083 785.909 445.193Z" stroke="#8F4772" stroke-width="6"/>
<path d="M639.543 448.21C639.992 446.435 641.589 445.193 643.42 445.193H808.568C810.389 445.193 811.981 446.423 812.439 448.185L837.376 543.992C838.035 546.526 836.123 549 833.505 549H619.14C616.533 549 614.622 546.545 615.263 544.017L639.543 448.21Z" fill="#FAC5E3"/>
<rect x="645.285" y="445.192" width="163.532" height="45.5046" fill="#EA95C4"/>
<rect x="710.697" y="486.431" width="11.3761" height="46.3172" fill="#B96096"/>
<path d="M712.83 540.468L710.697 532.748H716.385L712.83 540.468Z" fill="#B96096"/>
<path d="M719.941 540.468L716.386 532.748H722.074L719.941 540.468Z" fill="#B96096"/>
<rect x="732.027" y="486.431" width="11.3761" height="46.3172" fill="#B96096"/>
<path d="M734.16 540.468L732.027 532.748H737.715L734.16 540.468Z" fill="#B96096"/>
<path d="M741.271 540.468L737.716 532.748H743.404L741.271 540.468Z" fill="#B96096"/>
<path d="M727.684 483.031C728.35 482.646 728.35 481.684 727.684 481.299L688.023 458.401C687.356 458.016 686.523 458.497 686.523 459.267V505.063C686.523 505.833 687.356 506.314 688.023 505.929L727.684 483.031Z" fill="#CE6CA7"/>
<path d="M726.309 483.031C725.642 482.646 725.642 481.684 726.309 481.299L765.969 458.401C766.636 458.016 767.469 458.497 767.469 459.267V505.063C767.469 505.833 766.636 506.314 765.969 505.929L726.309 483.031Z" fill="#CE6CA7"/>
<circle cx="726.995" cy="482.165" r="10.9386" fill="#8F4772"/>
<path d="M727.05 470.789L730.315 479.093L739.137 482.165L730.315 485.238L727.05 493.541L723.785 485.238L714.963 482.165L723.785 479.093L727.05 470.789Z" fill="#070C2C"/>
<path d="M652 387L655.511 396.489L665 400L655.511 403.511L652 413L648.489 403.511L639 400L648.489 396.489L652 387Z" fill="#070C2C"/>
<path d="M598 496L602.321 507.679L614 512L602.321 516.321L598 528L593.679 516.321L582 512L593.679 507.679L598 496Z" fill="#070C2C"/>
<path d="M838.5 417L843.497 430.503L857 435.5L843.497 440.497L838.5 454L833.503 440.497L820 435.5L833.503 430.503L838.5 417Z" fill="#070C2C"/>
<rect x="505" y="549" width="429" height="63" fill="#DB6EB0"/>
<rect x="500" y="602" width="439" height="19" fill="#B35A90"/>
<rect x="703.5" y="621" width="33" height="219" fill="#C4659E"/>
<rect x="694.5" y="821" width="50" height="19" fill="#AD558B"/>
<rect x="24" y="863" width="388" height="115" rx="16" fill="#342F32"/>
<path d="M189.634 898.28C188.103 898.28 186.796 898 185.714 897.44C184.631 896.88 183.67 896.068 182.83 895.004L184.622 893.212C185.238 894.071 185.947 894.724 186.75 895.172C187.552 895.601 188.542 895.816 189.718 895.816C190.875 895.816 191.799 895.564 192.49 895.06C193.199 894.556 193.554 893.865 193.554 892.988C193.554 892.26 193.386 891.672 193.05 891.224C192.714 890.776 192.256 890.412 191.678 890.132C191.118 889.833 190.502 889.572 189.83 889.348C189.158 889.105 188.486 888.853 187.814 888.592C187.142 888.312 186.526 887.976 185.966 887.584C185.406 887.173 184.948 886.641 184.594 885.988C184.258 885.335 184.09 884.513 184.09 883.524C184.09 882.423 184.351 881.489 184.874 880.724C185.415 879.94 186.143 879.343 187.058 878.932C187.991 878.503 189.036 878.288 190.194 878.288C191.463 878.288 192.602 878.54 193.61 879.044C194.618 879.529 195.439 880.173 196.074 880.976L194.282 882.768C193.703 882.096 193.078 881.592 192.406 881.256C191.752 880.92 190.996 880.752 190.138 880.752C189.092 880.752 188.262 880.985 187.646 881.452C187.03 881.9 186.722 882.535 186.722 883.356C186.722 884.009 186.89 884.541 187.226 884.952C187.58 885.344 188.038 885.68 188.598 885.96C189.158 886.24 189.774 886.501 190.446 886.744C191.136 886.968 191.818 887.22 192.49 887.5C193.162 887.78 193.778 888.135 194.338 888.564C194.898 888.993 195.346 889.553 195.682 890.244C196.036 890.916 196.214 891.765 196.214 892.792C196.214 894.509 195.616 895.853 194.422 896.824C193.246 897.795 191.65 898.28 189.634 898.28ZM203.161 898.112L197.393 884.7H200.193L204.477 895.2H203.581L208.089 884.7H210.889L204.673 898.112H203.161ZM199.353 903.572L203.273 895.536L204.673 898.112L202.153 903.572H199.353ZM212.848 898V878.008H215.368V898H212.848ZM223.619 898L217.515 884.7H220.315L225.215 895.928H223.591L228.519 884.7H231.207L225.103 898H223.619ZM233.384 898V884.7H235.904V898H233.384ZM234.644 882.04C234.177 882.04 233.794 881.891 233.496 881.592C233.197 881.275 233.048 880.883 233.048 880.416C233.048 879.968 233.197 879.595 233.496 879.296C233.794 878.979 234.177 878.82 234.644 878.82C235.11 878.82 235.493 878.979 235.792 879.296C236.09 879.595 236.24 879.968 236.24 880.416C236.24 880.883 236.09 881.275 235.792 881.592C235.493 881.891 235.11 882.04 234.644 882.04ZM245.274 898.28C244.06 898.28 242.959 897.981 241.97 897.384C240.98 896.768 240.196 895.937 239.618 894.892C239.058 893.847 238.778 892.671 238.778 891.364C238.778 890.057 239.058 888.881 239.618 887.836C240.196 886.791 240.971 885.96 241.942 885.344C242.931 884.728 244.042 884.42 245.274 884.42C246.282 884.42 247.178 884.635 247.962 885.064C248.764 885.475 249.408 886.053 249.894 886.8C250.379 887.528 250.65 888.377 250.706 889.348V893.352C250.65 894.304 250.379 895.153 249.894 895.9C249.427 896.647 248.792 897.235 247.99 897.664C247.206 898.075 246.3 898.28 245.274 898.28ZM245.694 895.9C246.944 895.9 247.952 895.48 248.718 894.64C249.483 893.781 249.866 892.689 249.866 891.364C249.866 890.449 249.688 889.656 249.334 888.984C248.998 888.293 248.512 887.761 247.878 887.388C247.243 886.996 246.506 886.8 245.666 886.8C244.826 886.8 244.079 886.996 243.426 887.388C242.791 887.78 242.287 888.321 241.914 889.012C241.559 889.684 241.382 890.459 241.382 891.336C241.382 892.232 241.559 893.025 241.914 893.716C242.287 894.388 242.8 894.92 243.454 895.312C244.107 895.704 244.854 895.9 245.694 895.9ZM249.698 898V894.416L250.174 891.168L249.698 887.948V884.7H252.246V898H249.698Z" fill="#FFF2F9"/>
<path d="M52.648 950.5V943.852C52.648 942.988 52.376 942.276 51.832 941.716C51.288 941.156 50.584 940.876 49.72 940.876C49.144 940.876 48.632 941.004 48.184 941.26C47.736 941.516 47.384 941.868 47.128 942.316C46.872 942.764 46.744 943.276 46.744 943.852L45.856 943.348C45.856 942.484 46.048 941.716 46.432 941.044C46.816 940.372 47.352 939.844 48.04 939.46C48.728 939.06 49.504 938.86 50.368 938.86C51.232 938.86 51.992 939.052 52.648 939.436C53.32 939.82 53.848 940.356 54.232 941.044C54.616 941.732 54.808 942.524 54.808 943.42V950.5H52.648ZM44.584 950.5V933.364H46.744V950.5H44.584ZM63.0124 950.74C61.8764 950.74 60.8524 950.484 59.9404 949.972C59.0284 949.444 58.3084 948.732 57.7804 947.836C57.2524 946.94 56.9884 945.924 56.9884 944.788C56.9884 943.668 57.2444 942.66 57.7564 941.764C58.2844 940.868 58.9884 940.164 59.8684 939.652C60.7644 939.124 61.7644 938.86 62.8684 938.86C63.9244 938.86 64.8524 939.1 65.6524 939.58C66.4684 940.06 67.1004 940.724 67.5484 941.572C68.0124 942.42 68.2444 943.38 68.2444 944.452C68.2444 944.612 68.2364 944.788 68.2204 944.98C68.2044 945.156 68.1724 945.364 68.1244 945.604H58.5004V943.804H66.9724L66.1804 944.5C66.1804 943.732 66.0444 943.084 65.7724 942.556C65.5004 942.012 65.1164 941.596 64.6204 941.308C64.1244 941.004 63.5244 940.852 62.8204 940.852C62.0844 940.852 61.4364 941.012 60.8764 941.332C60.3164 941.652 59.8844 942.1 59.5804 942.676C59.2764 943.252 59.1244 943.932 59.1244 944.716C59.1244 945.516 59.2844 946.22 59.6044 946.828C59.9244 947.42 60.3804 947.884 60.9724 948.22C61.5644 948.54 62.2444 948.7 63.0124 948.7C63.6524 948.7 64.2364 948.588 64.7644 948.364C65.3084 948.14 65.7724 947.804 66.1564 947.356L67.5484 948.772C67.0044 949.412 66.3324 949.9 65.5324 950.236C64.7484 950.572 63.9084 950.74 63.0124 950.74ZM75.4476 950.74C74.4076 950.74 73.4636 950.484 72.6156 949.972C71.7676 949.444 71.0956 948.732 70.5996 947.836C70.1196 946.94 69.8796 945.932 69.8796 944.812C69.8796 943.692 70.1196 942.684 70.5996 941.788C71.0956 940.892 71.7596 940.18 72.5916 939.652C73.4396 939.124 74.3916 938.86 75.4476 938.86C76.3116 938.86 77.0796 939.044 77.7516 939.412C78.4396 939.764 78.9916 940.26 79.4076 940.9C79.8236 941.524 80.0556 942.252 80.1036 943.084V946.516C80.0556 947.332 79.8236 948.06 79.4076 948.7C79.0076 949.34 78.4636 949.844 77.7756 950.212C77.1036 950.564 76.3276 950.74 75.4476 950.74ZM75.8076 948.7C76.8796 948.7 77.7436 948.34 78.3996 947.62C79.0556 946.884 79.3836 945.948 79.3836 944.812C79.3836 944.028 79.2316 943.348 78.9276 942.772C78.6396 942.18 78.2236 941.724 77.6796 941.404C77.1356 941.068 76.5036 940.9 75.7836 940.9C75.0636 940.9 74.4236 941.068 73.8636 941.404C73.3196 941.74 72.8876 942.204 72.5676 942.796C72.2636 943.372 72.1116 944.036 72.1116 944.788C72.1116 945.556 72.2636 946.236 72.5676 946.828C72.8876 947.404 73.3276 947.86 73.8876 948.196C74.4476 948.532 75.0876 948.7 75.8076 948.7ZM79.2396 950.5V947.428L79.6476 944.644L79.2396 941.884V939.1H81.4236V950.5H79.2396ZM84.5684 950.5V933.364H86.7284V950.5H84.5684ZM91.6407 950.5V934.324H93.8007V950.5H91.6407ZM88.8327 941.068V939.1H96.6087V941.068H88.8327ZM106.789 950.5V943.852C106.789 942.988 106.517 942.276 105.973 941.716C105.429 941.156 104.725 940.876 103.861 940.876C103.285 940.876 102.773 941.004 102.325 941.26C101.877 941.516 101.525 941.868 101.269 942.316C101.013 942.764 100.885 943.276 100.885 943.852L99.9966 943.348C99.9966 942.484 100.189 941.716 100.573 941.044C100.957 940.372 101.493 939.844 102.181 939.46C102.869 939.06 103.645 938.86 104.509 938.86C105.373 938.86 106.133 939.052 106.789 939.436C107.461 939.82 107.989 940.356 108.373 941.044C108.757 941.732 108.949 942.524 108.949 943.42V950.5H106.789ZM98.7246 950.5V933.364H100.885V950.5H98.7246Z" fill="#FEFEFE"/>
<rect x="119" y="923" width="274" height="37" rx="16" fill="#EDD9E5"/>
<rect x="119" y="923" width="213" height="37" rx="16" fill="#AD558B"/>
<rect x="572" y="877" width="296" height="87" rx="16" fill="#282326"/>
<path d="M669.72 935.9C667.987 935.9 666.413 935.473 665 934.62C663.587 933.74 662.467 932.553 661.64 931.06C660.84 929.567 660.44 927.887 660.44 926.02C660.44 924.153 660.84 922.473 661.64 920.98C662.467 919.487 663.573 918.3 664.96 917.42C666.373 916.54 667.96 916.1 669.72 916.1C671.16 916.1 672.44 916.407 673.56 917.02C674.707 917.607 675.627 918.433 676.32 919.5C677.013 920.54 677.4 921.753 677.48 923.14V928.86C677.4 930.22 677.013 931.433 676.32 932.5C675.653 933.567 674.747 934.407 673.6 935.02C672.48 935.607 671.187 935.9 669.72 935.9ZM670.32 932.5C672.107 932.5 673.547 931.9 674.64 930.7C675.733 929.473 676.28 927.913 676.28 926.02C676.28 924.713 676.027 923.58 675.52 922.62C675.04 921.633 674.347 920.873 673.44 920.34C672.533 919.78 671.48 919.5 670.28 919.5C669.08 919.5 668.013 919.78 667.08 920.34C666.173 920.9 665.453 921.673 664.92 922.66C664.413 923.62 664.16 924.727 664.16 925.98C664.16 927.26 664.413 928.393 664.92 929.38C665.453 930.34 666.187 931.1 667.12 931.66C668.053 932.22 669.12 932.5 670.32 932.5ZM676.04 935.5V930.38L676.72 925.74L676.04 921.14V916.5H679.68V935.5H676.04ZM687.841 935.5V908.54H691.441V935.5H687.841ZM683.161 919.78V916.5H707.441V919.78H683.161ZM699.161 935.5V908.54H702.761V935.5H699.161ZM718.47 935.9C716.737 935.9 715.163 935.473 713.75 934.62C712.337 933.74 711.217 932.553 710.39 931.06C709.59 929.567 709.19 927.887 709.19 926.02C709.19 924.153 709.59 922.473 710.39 920.98C711.217 919.487 712.323 918.3 713.71 917.42C715.123 916.54 716.71 916.1 718.47 916.1C719.91 916.1 721.19 916.407 722.31 917.02C723.457 917.607 724.377 918.433 725.07 919.5C725.763 920.54 726.15 921.753 726.23 923.14V928.86C726.15 930.22 725.763 931.433 725.07 932.5C724.403 933.567 723.497 934.407 722.35 935.02C721.23 935.607 719.937 935.9 718.47 935.9ZM719.07 932.5C720.857 932.5 722.297 931.9 723.39 930.7C724.483 929.473 725.03 927.913 725.03 926.02C725.03 924.713 724.777 923.58 724.27 922.62C723.79 921.633 723.097 920.873 722.19 920.34C721.283 919.78 720.23 919.5 719.03 919.5C717.83 919.5 716.763 919.78 715.83 920.34C714.923 920.9 714.203 921.673 713.67 922.66C713.163 923.62 712.91 924.727 712.91 925.98C712.91 927.26 713.163 928.393 713.67 929.38C714.203 930.34 714.937 931.1 715.87 931.66C716.803 932.22 717.87 932.5 719.07 932.5ZM724.79 935.5V930.38L725.47 925.74L724.79 921.14V916.5H728.43V935.5H724.79ZM742.351 935.9C740.485 935.9 738.791 935.46 737.271 934.58C735.778 933.7 734.591 932.513 733.711 931.02C732.858 929.5 732.431 927.82 732.431 925.98C732.431 924.113 732.858 922.433 733.711 920.94C734.591 919.447 735.778 918.273 737.271 917.42C738.791 916.54 740.485 916.1 742.351 916.1C743.818 916.1 745.178 916.38 746.431 916.94C747.685 917.473 748.765 918.26 749.671 919.3L747.271 921.7C746.685 921.007 745.965 920.487 745.111 920.14C744.285 919.767 743.365 919.58 742.351 919.58C741.151 919.58 740.085 919.86 739.151 920.42C738.218 920.953 737.485 921.7 736.951 922.66C736.418 923.62 736.151 924.727 736.151 925.98C736.151 927.233 736.418 928.34 736.951 929.3C737.485 930.26 738.218 931.02 739.151 931.58C740.085 932.14 741.151 932.42 742.351 932.42C743.365 932.42 744.285 932.247 745.111 931.9C745.965 931.527 746.698 930.993 747.311 930.3L749.671 932.7C748.791 933.713 747.711 934.5 746.431 935.06C745.178 935.62 743.818 935.9 742.351 935.9ZM765.402 935.5L756.522 925.78L765.322 916.5H769.682L759.882 926.74L760.042 924.66L770.042 935.5H765.402ZM753.242 935.5V906.94H756.842V935.5H753.242ZM774.243 926.7L773.723 906.94H777.563L777.043 926.7H774.243ZM775.603 935.9C774.857 935.9 774.243 935.647 773.763 935.14C773.283 934.633 773.043 934.007 773.043 933.26C773.043 932.513 773.283 931.9 773.763 931.42C774.243 930.913 774.857 930.66 775.603 930.66C776.377 930.66 777.003 930.913 777.483 931.42C777.963 931.9 778.203 932.513 778.203 933.26C778.203 934.007 777.963 934.633 777.483 935.14C777.003 935.647 776.377 935.9 775.603 935.9Z" fill="#EFDEE8"/>
<rect x="1028" y="863" width="388" height="115" rx="16" fill="#342F32"/>
<path d="M1193.58 893.44V891.144H1198.87C1199.6 891.144 1200.24 890.995 1200.8 890.696C1201.38 890.397 1201.83 889.977 1202.14 889.436C1202.48 888.895 1202.65 888.251 1202.65 887.504C1202.65 886.757 1202.48 886.113 1202.14 885.572C1201.83 885.031 1201.38 884.611 1200.8 884.312C1200.24 884.013 1199.6 883.864 1198.87 883.864H1193.58V881.568H1199.04C1200.23 881.568 1201.29 881.811 1202.23 882.296C1203.18 882.781 1203.93 883.472 1204.47 884.368C1205.03 885.245 1205.31 886.291 1205.31 887.504C1205.31 888.699 1205.03 889.744 1204.47 890.64C1203.93 891.517 1203.18 892.208 1202.23 892.712C1201.29 893.197 1200.23 893.44 1199.04 893.44H1193.58ZM1191.81 901V881.568H1194.44V901H1191.81ZM1213.74 901.28C1212.41 901.28 1211.22 900.981 1210.15 900.384C1209.09 899.768 1208.25 898.937 1207.63 897.892C1207.02 896.847 1206.71 895.661 1206.71 894.336C1206.71 893.029 1207.01 891.853 1207.61 890.808C1208.22 889.763 1209.04 888.941 1210.07 888.344C1211.12 887.728 1212.28 887.42 1213.57 887.42C1214.8 887.42 1215.89 887.7 1216.82 888.26C1217.77 888.82 1218.51 889.595 1219.03 890.584C1219.57 891.573 1219.84 892.693 1219.84 893.944C1219.84 894.131 1219.83 894.336 1219.81 894.56C1219.8 894.765 1219.76 895.008 1219.7 895.288H1208.47V893.188H1218.36L1217.43 894C1217.43 893.104 1217.28 892.348 1216.96 891.732C1216.64 891.097 1216.19 890.612 1215.61 890.276C1215.04 889.921 1214.34 889.744 1213.51 889.744C1212.66 889.744 1211.9 889.931 1211.25 890.304C1210.59 890.677 1210.09 891.2 1209.73 891.872C1209.38 892.544 1209.2 893.337 1209.2 894.252C1209.2 895.185 1209.39 896.007 1209.76 896.716C1210.14 897.407 1210.67 897.948 1211.36 898.34C1212.05 898.713 1212.84 898.9 1213.74 898.9C1214.49 898.9 1215.17 898.769 1215.78 898.508C1216.42 898.247 1216.96 897.855 1217.41 897.332L1219.03 898.984C1218.4 899.731 1217.61 900.3 1216.68 900.692C1215.76 901.084 1214.78 901.28 1213.74 901.28ZM1228.25 901.28C1227.03 901.28 1225.93 900.981 1224.94 900.384C1223.95 899.768 1223.17 898.937 1222.59 897.892C1222.03 896.847 1221.75 895.671 1221.75 894.364C1221.75 893.057 1222.03 891.881 1222.59 890.836C1223.17 889.791 1223.94 888.96 1224.91 888.344C1225.9 887.728 1227.01 887.42 1228.25 887.42C1229.25 887.42 1230.15 887.635 1230.93 888.064C1231.74 888.475 1232.38 889.053 1232.87 889.8C1233.35 890.528 1233.62 891.377 1233.68 892.348V896.352C1233.62 897.304 1233.35 898.153 1232.87 898.9C1232.4 899.647 1231.76 900.235 1230.96 900.664C1230.18 901.075 1229.27 901.28 1228.25 901.28ZM1228.67 898.9C1229.92 898.9 1230.92 898.48 1231.69 897.64C1232.46 896.781 1232.84 895.689 1232.84 894.364C1232.84 893.449 1232.66 892.656 1232.31 891.984C1231.97 891.293 1231.48 890.761 1230.85 890.388C1230.22 889.996 1229.48 889.8 1228.64 889.8C1227.8 889.8 1227.05 889.996 1226.4 890.388C1225.76 890.78 1225.26 891.321 1224.89 892.012C1224.53 892.684 1224.35 893.459 1224.35 894.336C1224.35 895.232 1224.53 896.025 1224.89 896.716C1225.26 897.388 1225.77 897.92 1226.43 898.312C1227.08 898.704 1227.83 898.9 1228.67 898.9ZM1232.67 901V897.416L1233.15 894.168L1232.67 890.948V887.7H1235.22V901H1232.67ZM1238.89 901V887.7H1241.41V901H1238.89ZM1241.41 893.412L1240.46 892.992C1240.46 891.293 1240.85 889.94 1241.63 888.932C1242.42 887.924 1243.54 887.42 1245.02 887.42C1245.69 887.42 1246.3 887.541 1246.84 887.784C1247.38 888.008 1247.88 888.391 1248.35 888.932L1246.7 890.64C1246.42 890.341 1246.11 890.127 1245.78 889.996C1245.44 889.865 1245.05 889.8 1244.6 889.8C1243.67 889.8 1242.9 890.099 1242.3 890.696C1241.71 891.293 1241.41 892.199 1241.41 893.412ZM1250.13 901V881.008H1252.65V901H1250.13Z" fill="#FFF2F9"/>
<path d="M1051.65 946.5V939.852C1051.65 938.988 1051.38 938.276 1050.83 937.716C1050.29 937.156 1049.58 936.876 1048.72 936.876C1048.14 936.876 1047.63 937.004 1047.18 937.26C1046.74 937.516 1046.38 937.868 1046.13 938.316C1045.87 938.764 1045.74 939.276 1045.74 939.852L1044.86 939.348C1044.86 938.484 1045.05 937.716 1045.43 937.044C1045.82 936.372 1046.35 935.844 1047.04 935.46C1047.73 935.06 1048.5 934.86 1049.37 934.86C1050.23 934.86 1050.99 935.052 1051.65 935.436C1052.32 935.82 1052.85 936.356 1053.23 937.044C1053.62 937.732 1053.81 938.524 1053.81 939.42V946.5H1051.65ZM1043.58 946.5V929.364H1045.74V946.5H1043.58ZM1062.01 946.74C1060.88 946.74 1059.85 946.484 1058.94 945.972C1058.03 945.444 1057.31 944.732 1056.78 943.836C1056.25 942.94 1055.99 941.924 1055.99 940.788C1055.99 939.668 1056.24 938.66 1056.76 937.764C1057.28 936.868 1057.99 936.164 1058.87 935.652C1059.76 935.124 1060.76 934.86 1061.87 934.86C1062.92 934.86 1063.85 935.1 1064.65 935.58C1065.47 936.06 1066.1 936.724 1066.55 937.572C1067.01 938.42 1067.24 939.38 1067.24 940.452C1067.24 940.612 1067.24 940.788 1067.22 940.98C1067.2 941.156 1067.17 941.364 1067.12 941.604H1057.5V939.804H1065.97L1065.18 940.5C1065.18 939.732 1065.04 939.084 1064.77 938.556C1064.5 938.012 1064.12 937.596 1063.62 937.308C1063.12 937.004 1062.52 936.852 1061.82 936.852C1061.08 936.852 1060.44 937.012 1059.88 937.332C1059.32 937.652 1058.88 938.1 1058.58 938.676C1058.28 939.252 1058.12 939.932 1058.12 940.716C1058.12 941.516 1058.28 942.22 1058.6 942.828C1058.92 943.42 1059.38 943.884 1059.97 944.22C1060.56 944.54 1061.24 944.7 1062.01 944.7C1062.65 944.7 1063.24 944.588 1063.76 944.364C1064.31 944.14 1064.77 943.804 1065.16 943.356L1066.55 944.772C1066 945.412 1065.33 945.9 1064.53 946.236C1063.75 946.572 1062.91 946.74 1062.01 946.74ZM1074.45 946.74C1073.41 946.74 1072.46 946.484 1071.62 945.972C1070.77 945.444 1070.1 944.732 1069.6 943.836C1069.12 942.94 1068.88 941.932 1068.88 940.812C1068.88 939.692 1069.12 938.684 1069.6 937.788C1070.1 936.892 1070.76 936.18 1071.59 935.652C1072.44 935.124 1073.39 934.86 1074.45 934.86C1075.31 934.86 1076.08 935.044 1076.75 935.412C1077.44 935.764 1077.99 936.26 1078.41 936.9C1078.82 937.524 1079.06 938.252 1079.1 939.084V942.516C1079.06 943.332 1078.82 944.06 1078.41 944.7C1078.01 945.34 1077.46 945.844 1076.78 946.212C1076.1 946.564 1075.33 946.74 1074.45 946.74ZM1074.81 944.7C1075.88 944.7 1076.74 944.34 1077.4 943.62C1078.06 942.884 1078.38 941.948 1078.38 940.812C1078.38 940.028 1078.23 939.348 1077.93 938.772C1077.64 938.18 1077.22 937.724 1076.68 937.404C1076.14 937.068 1075.5 936.9 1074.78 936.9C1074.06 936.9 1073.42 937.068 1072.86 937.404C1072.32 937.74 1071.89 938.204 1071.57 938.796C1071.26 939.372 1071.11 940.036 1071.11 940.788C1071.11 941.556 1071.26 942.236 1071.57 942.828C1071.89 943.404 1072.33 943.86 1072.89 944.196C1073.45 944.532 1074.09 944.7 1074.81 944.7ZM1078.24 946.5V943.428L1078.65 940.644L1078.24 937.884V935.1H1080.42V946.5H1078.24ZM1083.57 946.5V929.364H1085.73V946.5H1083.57ZM1090.64 946.5V930.324H1092.8V946.5H1090.64ZM1087.83 937.068V935.1H1095.61V937.068H1087.83ZM1105.79 946.5V939.852C1105.79 938.988 1105.52 938.276 1104.97 937.716C1104.43 937.156 1103.72 936.876 1102.86 936.876C1102.28 936.876 1101.77 937.004 1101.32 937.26C1100.88 937.516 1100.52 937.868 1100.27 938.316C1100.01 938.764 1099.88 939.276 1099.88 939.852L1099 939.348C1099 938.484 1099.19 937.716 1099.57 937.044C1099.96 936.372 1100.49 935.844 1101.18 935.46C1101.87 935.06 1102.64 934.86 1103.51 934.86C1104.37 934.86 1105.13 935.052 1105.79 935.436C1106.46 935.82 1106.99 936.356 1107.37 937.044C1107.76 937.732 1107.95 938.524 1107.95 939.42V946.5H1105.79ZM1097.72 946.5V929.364H1099.88V946.5H1097.72Z" fill="#FFF2F9"/>
<rect x="1118" y="919" width="274" height="37" rx="16" fill="#EDD9E5"/>
<rect x="1118" y="919" width="213" height="37" rx="16" fill="#AD558B"/>
<path d="M993.941 105.585C994.649 105.145 995.477 104.938 996.309 104.991L998.532 105.134C999.016 105.166 999.49 105.284 999.931 105.485L1001.45 106.177C1002.14 106.488 1002.72 106.987 1003.14 107.616L1012.55 121.893L1015.79 128.688C1016.18 129.508 1016.29 130.436 1016.08 131.321L1015.22 134.979C1014.96 136.102 1014.23 137.057 1013.21 137.6L1010.35 139.12C1009.07 139.806 1007.51 139.737 1006.29 138.94L1001.89 136.069C1001.59 135.871 1001.26 135.715 1000.91 135.605L993.08 133.13C992.867 133.063 992.649 133.013 992.428 132.982L985.13 131.963L977.684 131.943C976.505 131.94 975.387 131.417 974.63 130.514L972.628 128.127C971.819 127.162 971.511 125.873 971.798 124.647L972.61 121.169C972.817 120.284 973.318 119.496 974.032 118.935L979.949 114.279L993.941 105.585Z" fill="#342F32" fill-opacity="0.7"/>
<ellipse cx="974.349" cy="99.0084" rx="7.49362" ry="12.5809" transform="rotate(-13.183 974.349 99.0084)" fill="#342F32" fill-opacity="0.7"/>
<ellipse cx="7.49362" cy="12.5809" rx="7.49362" ry="12.5809" transform="matrix(-0.771908 -0.635734 -0.635734 0.771908 1037.32 105.55)" fill="#342F32" fill-opacity="0.7"/>
<ellipse cx="992.172" cy="86.9276" rx="7.49362" ry="12.5809" transform="rotate(1.5688 992.172 86.9276)" fill="#342F32" fill-opacity="0.7"/>
<ellipse cx="7.49362" cy="12.5809" rx="7.49362" ry="12.5809" transform="matrix(-0.908343 -0.418227 -0.418227 0.908343 1024.62 83.3926)" fill="#342F32" fill-opacity="0.7"/>
<path d="M969.863 83.3018L972.886 87.71L969.112 88.5941L969.863 83.3018Z" fill="#342F32" fill-opacity="0.7"/>
<path d="M991.964 70.9427L993.765 75.9754L989.89 75.8694L991.964 70.9427Z" fill="#342F32" fill-opacity="0.7"/>
<path d="M1020.23 77.3872L1019.64 82.699L1016.2 80.8984L1020.23 77.3872Z" fill="#342F32" fill-opacity="0.7"/>
<path d="M1033.64 98.1462L1032.1 103.264L1029.05 100.875L1033.64 98.1462Z" fill="#342F32" fill-opacity="0.7"/>
<rect x="437.5" y="687.5" width="589" height="128" fill="#E4AECC"/>
<rect x="437.5" y="687.5" width="589" height="128" stroke="#D39BBA" stroke-width="3"/>
<path d="M511.72 766.9C509.987 766.9 508.413 766.473 507 765.62C505.587 764.74 504.467 763.553 503.64 762.06C502.84 760.567 502.44 758.887 502.44 757.02C502.44 755.153 502.84 753.473 503.64 751.98C504.467 750.487 505.573 749.3 506.96 748.42C508.373 747.54 509.96 747.1 511.72 747.1C513.16 747.1 514.44 747.407 515.56 748.02C516.707 748.607 517.627 749.433 518.32 750.5C519.013 751.54 519.4 752.753 519.48 754.14V759.86C519.4 761.22 519.013 762.433 518.32 763.5C517.653 764.567 516.747 765.407 515.6 766.02C514.48 766.607 513.187 766.9 511.72 766.9ZM512.32 763.5C514.107 763.5 515.547 762.9 516.64 761.7C517.733 760.473 518.28 758.913 518.28 757.02C518.28 755.713 518.027 754.58 517.52 753.62C517.04 752.633 516.347 751.873 515.44 751.34C514.533 750.78 513.48 750.5 512.28 750.5C511.08 750.5 510.013 750.78 509.08 751.34C508.173 751.9 507.453 752.673 506.92 753.66C506.413 754.62 506.16 755.727 506.16 756.98C506.16 758.26 506.413 759.393 506.92 760.38C507.453 761.34 508.187 762.1 509.12 762.66C510.053 763.22 511.12 763.5 512.32 763.5ZM518.04 766.5V761.38L518.72 756.74L518.04 752.14V747.5H521.68V766.5H518.04ZM541.762 766.5L533.042 747.5H537.042L544.042 763.54H541.722L548.762 747.5H552.602L543.882 766.5H541.762ZM563.729 766.9C561.836 766.9 560.129 766.473 558.609 765.62C557.089 764.74 555.889 763.553 555.009 762.06C554.129 760.567 553.689 758.873 553.689 756.98C553.689 755.113 554.116 753.433 554.969 751.94C555.849 750.447 557.022 749.273 558.489 748.42C559.982 747.54 561.649 747.1 563.489 747.1C565.249 747.1 566.796 747.5 568.129 748.3C569.489 749.1 570.542 750.207 571.289 751.62C572.062 753.033 572.449 754.633 572.449 756.42C572.449 756.687 572.436 756.98 572.409 757.3C572.382 757.593 572.329 757.94 572.249 758.34H556.209V755.34H570.329L569.009 756.5C569.009 755.22 568.782 754.14 568.329 753.26C567.876 752.353 567.236 751.66 566.409 751.18C565.582 750.673 564.582 750.42 563.409 750.42C562.182 750.42 561.102 750.687 560.169 751.22C559.236 751.753 558.516 752.5 558.009 753.46C557.502 754.42 557.249 755.553 557.249 756.86C557.249 758.193 557.516 759.367 558.049 760.38C558.582 761.367 559.342 762.14 560.329 762.7C561.316 763.233 562.449 763.5 563.729 763.5C564.796 763.5 565.769 763.313 566.649 762.94C567.556 762.567 568.329 762.007 568.969 761.26L571.289 763.62C570.382 764.687 569.262 765.5 567.929 766.06C566.622 766.62 565.222 766.9 563.729 766.9ZM576.374 766.5V747.5H579.974V766.5H576.374ZM579.974 755.66L578.614 755.06C578.614 752.633 579.174 750.7 580.294 749.26C581.414 747.82 583.028 747.1 585.134 747.1C586.094 747.1 586.961 747.273 587.734 747.62C588.508 747.94 589.228 748.487 589.894 749.26L587.534 751.7C587.134 751.273 586.694 750.967 586.214 750.78C585.734 750.593 585.174 750.5 584.534 750.5C583.201 750.5 582.108 750.927 581.254 751.78C580.401 752.633 579.974 753.927 579.974 755.66ZM598.318 766.66L590.078 747.5H594.078L600.198 762.5H598.918L605.358 747.5H609.358L600.478 766.66H598.318ZM592.878 774.46L598.478 762.98L600.478 766.66L596.878 774.46H592.878ZM626.385 766.5L618.865 747.5H622.625L628.065 762.3H626.865L632.265 747.5H634.345L639.745 762.3H638.545L643.985 747.5H647.745L640.265 766.5H638.145L632.665 752.14H633.985L628.465 766.5H626.385ZM659.198 766.9C657.304 766.9 655.598 766.473 654.078 765.62C652.558 764.74 651.358 763.553 650.478 762.06C649.598 760.567 649.158 758.873 649.158 756.98C649.158 755.113 649.584 753.433 650.438 751.94C651.318 750.447 652.491 749.273 653.958 748.42C655.451 747.54 657.118 747.1 658.958 747.1C660.718 747.1 662.264 747.5 663.598 748.3C664.958 749.1 666.011 750.207 666.758 751.62C667.531 753.033 667.918 754.633 667.918 756.42C667.918 756.687 667.904 756.98 667.878 757.3C667.851 757.593 667.798 757.94 667.718 758.34H651.678V755.34H665.798L664.478 756.5C664.478 755.22 664.251 754.14 663.798 753.26C663.344 752.353 662.704 751.66 661.878 751.18C661.051 750.673 660.051 750.42 658.878 750.42C657.651 750.42 656.571 750.687 655.638 751.22C654.704 751.753 653.984 752.5 653.478 753.46C652.971 754.42 652.718 755.553 652.718 756.86C652.718 758.193 652.984 759.367 653.518 760.38C654.051 761.367 654.811 762.14 655.798 762.7C656.784 763.233 657.918 763.5 659.198 763.5C660.264 763.5 661.238 763.313 662.118 762.94C663.024 762.567 663.798 762.007 664.438 761.26L666.758 763.62C665.851 764.687 664.731 765.5 663.398 766.06C662.091 766.62 660.691 766.9 659.198 766.9ZM679.923 766.9C678.19 766.9 676.616 766.473 675.203 765.62C673.79 764.74 672.67 763.553 671.843 762.06C671.043 760.567 670.643 758.887 670.643 757.02C670.643 755.153 671.043 753.473 671.843 751.98C672.67 750.487 673.776 749.3 675.163 748.42C676.576 747.54 678.163 747.1 679.923 747.1C681.363 747.1 682.643 747.407 683.763 748.02C684.91 748.607 685.83 749.433 686.523 750.5C687.216 751.54 687.603 752.753 687.683 754.14V759.86C687.603 761.22 687.216 762.433 686.523 763.5C685.856 764.567 684.95 765.407 683.803 766.02C682.683 766.607 681.39 766.9 679.923 766.9ZM680.523 763.5C682.31 763.5 683.75 762.9 684.843 761.7C685.936 760.473 686.483 758.913 686.483 757.02C686.483 755.713 686.23 754.58 685.723 753.62C685.243 752.633 684.55 751.873 683.643 751.34C682.736 750.78 681.683 750.5 680.483 750.5C679.283 750.5 678.216 750.78 677.283 751.34C676.376 751.9 675.656 752.673 675.123 753.66C674.616 754.62 674.363 755.727 674.363 756.98C674.363 758.26 674.616 759.393 675.123 760.38C675.656 761.34 676.39 762.1 677.323 762.66C678.256 763.22 679.323 763.5 680.523 763.5ZM686.243 766.5V761.38L686.923 756.74L686.243 752.14V747.5H689.883V766.5H686.243ZM707.284 766.5L698.404 756.78L707.204 747.5H711.564L701.764 757.74L701.924 755.66L711.924 766.5H707.284ZM695.124 766.5V737.94H698.724V766.5H695.124ZM729.407 766.9C728.34 766.9 727.327 766.767 726.367 766.5C725.433 766.207 724.567 765.807 723.767 765.3C722.967 764.767 722.273 764.14 721.687 763.42L724.007 761.1C724.7 761.953 725.5 762.593 726.407 763.02C727.313 763.42 728.327 763.62 729.447 763.62C730.567 763.62 731.433 763.433 732.047 763.06C732.66 762.66 732.967 762.113 732.967 761.42C732.967 760.727 732.713 760.193 732.207 759.82C731.727 759.42 731.1 759.1 730.327 758.86C729.553 758.593 728.727 758.34 727.847 758.1C726.993 757.833 726.18 757.5 725.407 757.1C724.633 756.7 723.993 756.153 723.487 755.46C723.007 754.767 722.767 753.847 722.767 752.7C722.767 751.553 723.047 750.567 723.607 749.74C724.167 748.887 724.94 748.233 725.927 747.78C726.94 747.327 728.153 747.1 729.567 747.1C731.06 747.1 732.38 747.367 733.527 747.9C734.7 748.407 735.66 749.18 736.407 750.22L734.087 752.54C733.553 751.847 732.887 751.313 732.087 750.94C731.313 750.567 730.433 750.38 729.447 750.38C728.407 750.38 727.607 750.567 727.047 750.94C726.513 751.287 726.247 751.78 726.247 752.42C726.247 753.06 726.487 753.553 726.967 753.9C727.447 754.247 728.073 754.54 728.847 754.78C729.647 755.02 730.473 755.273 731.327 755.54C732.18 755.78 732.993 756.113 733.767 756.54C734.54 756.967 735.167 757.54 735.647 758.26C736.153 758.98 736.407 759.927 736.407 761.1C736.407 762.887 735.767 764.3 734.487 765.34C733.233 766.38 731.54 766.9 729.407 766.9ZM749.117 766.9C747.25 766.9 745.557 766.46 744.037 765.58C742.544 764.7 741.357 763.513 740.477 762.02C739.624 760.5 739.197 758.82 739.197 756.98C739.197 755.113 739.624 753.433 740.477 751.94C741.357 750.447 742.544 749.273 744.037 748.42C745.557 747.54 747.25 747.1 749.117 747.1C750.584 747.1 751.944 747.38 753.197 747.94C754.45 748.473 755.53 749.26 756.437 750.3L754.037 752.7C753.45 752.007 752.73 751.487 751.877 751.14C751.05 750.767 750.13 750.58 749.117 750.58C747.917 750.58 746.85 750.86 745.917 751.42C744.984 751.953 744.25 752.7 743.717 753.66C743.184 754.62 742.917 755.727 742.917 756.98C742.917 758.233 743.184 759.34 743.717 760.3C744.25 761.26 744.984 762.02 745.917 762.58C746.85 763.14 747.917 763.42 749.117 763.42C750.13 763.42 751.05 763.247 751.877 762.9C752.73 762.527 753.464 761.993 754.077 761.3L756.437 763.7C755.557 764.713 754.477 765.5 753.197 766.06C751.944 766.62 750.584 766.9 749.117 766.9ZM760.007 766.5V747.5H763.607V766.5H760.007ZM763.607 755.66L762.247 755.06C762.247 752.633 762.807 750.7 763.927 749.26C765.047 747.82 766.661 747.1 768.767 747.1C769.727 747.1 770.594 747.273 771.367 747.62C772.141 747.94 772.861 748.487 773.527 749.26L771.167 751.7C770.767 751.273 770.327 750.967 769.847 750.78C769.367 750.593 768.807 750.5 768.167 750.5C766.834 750.5 765.741 750.927 764.887 751.78C764.034 752.633 763.607 753.927 763.607 755.66ZM783.517 766.9C781.784 766.9 780.21 766.473 778.797 765.62C777.384 764.74 776.264 763.553 775.437 762.06C774.637 760.567 774.237 758.887 774.237 757.02C774.237 755.153 774.637 753.473 775.437 751.98C776.264 750.487 777.37 749.3 778.757 748.42C780.17 747.54 781.757 747.1 783.517 747.1C784.957 747.1 786.237 747.407 787.357 748.02C788.504 748.607 789.424 749.433 790.117 750.5C790.81 751.54 791.197 752.753 791.277 754.14V759.86C791.197 761.22 790.81 762.433 790.117 763.5C789.45 764.567 788.544 765.407 787.397 766.02C786.277 766.607 784.984 766.9 783.517 766.9ZM784.117 763.5C785.904 763.5 787.344 762.9 788.437 761.7C789.53 760.473 790.077 758.913 790.077 757.02C790.077 755.713 789.824 754.58 789.317 753.62C788.837 752.633 788.144 751.873 787.237 751.34C786.33 750.78 785.277 750.5 784.077 750.5C782.877 750.5 781.81 750.78 780.877 751.34C779.97 751.9 779.25 752.673 778.717 753.66C778.21 754.62 777.957 755.727 777.957 756.98C777.957 758.26 778.21 759.393 778.717 760.38C779.25 761.34 779.984 762.1 780.917 762.66C781.85 763.22 782.917 763.5 784.117 763.5ZM789.837 766.5V761.38L790.517 756.74L789.837 752.14V747.5H793.477V766.5H789.837ZM801.56 766.5V739.54H805.16V766.5H801.56ZM796.88 750.78V747.5H809.84V750.78H796.88ZM821.461 766.9C819.594 766.9 817.901 766.46 816.381 765.58C814.887 764.7 813.701 763.513 812.821 762.02C811.967 760.5 811.541 758.82 811.541 756.98C811.541 755.113 811.967 753.433 812.821 751.94C813.701 750.447 814.887 749.273 816.381 748.42C817.901 747.54 819.594 747.1 821.461 747.1C822.927 747.1 824.287 747.38 825.541 747.94C826.794 748.473 827.874 749.26 828.781 750.3L826.381 752.7C825.794 752.007 825.074 751.487 824.221 751.14C823.394 750.767 822.474 750.58 821.461 750.58C820.261 750.58 819.194 750.86 818.261 751.42C817.327 751.953 816.594 752.7 816.061 753.66C815.527 754.62 815.261 755.727 815.261 756.98C815.261 758.233 815.527 759.34 816.061 760.3C816.594 761.26 817.327 762.02 818.261 762.58C819.194 763.14 820.261 763.42 821.461 763.42C822.474 763.42 823.394 763.247 824.221 762.9C825.074 762.527 825.807 761.993 826.421 761.3L828.781 763.7C827.901 764.713 826.821 765.5 825.541 766.06C824.287 766.62 822.927 766.9 821.461 766.9ZM845.791 766.5V755.42C845.791 753.98 845.338 752.793 844.431 751.86C843.524 750.927 842.351 750.46 840.911 750.46C839.951 750.46 839.098 750.673 838.351 751.1C837.604 751.527 837.018 752.113 836.591 752.86C836.164 753.607 835.951 754.46 835.951 755.42L834.471 754.58C834.471 753.14 834.791 751.86 835.431 750.74C836.071 749.62 836.964 748.74 838.111 748.1C839.258 747.433 840.551 747.1 841.991 747.1C843.431 747.1 844.698 747.42 845.791 748.06C846.911 748.7 847.791 749.593 848.431 750.74C849.071 751.887 849.391 753.207 849.391 754.7V766.5H845.791ZM832.351 766.5V737.94H835.951V766.5H832.351ZM855.345 757.7L854.825 737.94H858.665L858.145 757.7H855.345ZM856.705 766.9C855.958 766.9 855.345 766.647 854.865 766.14C854.385 765.633 854.145 765.007 854.145 764.26C854.145 763.513 854.385 762.9 854.865 762.42C855.345 761.913 855.958 761.66 856.705 761.66C857.478 761.66 858.105 761.913 858.585 762.42C859.065 762.9 859.305 763.513 859.305 764.26C859.305 765.007 859.065 765.633 858.585 766.14C858.105 766.647 857.478 766.9 856.705 766.9ZM873.015 758.02V754.62H886.175V758.02H873.015ZM898.733 766.9C896.839 766.9 895.146 766.567 893.653 765.9C892.186 765.207 890.946 764.207 889.933 762.9L892.493 760.34C893.106 761.273 893.946 762.02 895.013 762.58C896.106 763.113 897.319 763.38 898.653 763.38C899.906 763.38 900.999 763.14 901.933 762.66C902.893 762.18 903.639 761.513 904.173 760.66C904.733 759.78 905.013 758.74 905.013 757.54C905.013 756.313 904.746 755.273 904.213 754.42C903.679 753.567 902.959 752.927 902.053 752.5C901.173 752.047 900.199 751.82 899.133 751.82C898.039 751.82 897.039 751.953 896.133 752.22C895.253 752.487 894.413 752.94 893.613 753.58L893.653 751.18C894.106 750.62 894.626 750.167 895.213 749.82C895.799 749.473 896.466 749.207 897.213 749.02C897.959 748.833 898.826 748.74 899.813 748.74C901.733 748.74 903.359 749.14 904.693 749.94C906.026 750.74 907.039 751.82 907.733 753.18C908.453 754.54 908.812 756.06 908.812 757.74C908.812 759.5 908.373 761.073 907.493 762.46C906.639 763.847 905.453 764.94 903.933 765.74C902.413 766.513 900.679 766.9 898.733 766.9ZM893.613 753.58L891.573 751.54L892.813 738.74H896.253L894.853 751.9L893.613 753.58ZM893.573 742.1L892.813 738.74H907.413V742.1H893.573ZM913.733 766.5V738.74H917.493V766.5H913.733ZM931.653 766.5V738.74H935.413V766.5H931.653ZM916.293 753.86V750.42H932.573V753.86H916.293ZM944.495 755.7V752.42H952.055C953.095 752.42 954.015 752.207 954.815 751.78C955.642 751.353 956.282 750.753 956.735 749.98C957.215 749.207 957.455 748.287 957.455 747.22C957.455 746.153 957.215 745.233 956.735 744.46C956.282 743.687 955.642 743.087 954.815 742.66C954.015 742.233 953.095 742.02 952.055 742.02H944.495V738.74H952.295C954.002 738.74 955.522 739.087 956.855 739.78C958.215 740.473 959.282 741.46 960.055 742.74C960.855 743.993 961.255 745.487 961.255 747.22C961.255 748.927 960.855 750.42 960.055 751.7C959.282 752.953 958.215 753.94 956.855 754.66C955.522 755.353 954.002 755.7 952.295 755.7H944.495ZM941.975 766.5V738.74H945.735V766.5H941.975Z" fill="black"/>
</g>
<defs>
<linearGradient id="paint0_linear_484_523" x1="218" y1="320" x2="218" y2="452" gradientUnits="userSpaceOnUse">
<stop stop-color="#AF82A7"/>
<stop offset="1" stop-color="#B0568D"/>
</linearGradient>
<linearGradient id="paint1_linear_484_523" x1="218" y1="473" x2="218" y2="605" gradientUnits="userSpaceOnUse">
<stop stop-color="#AF82A7"/>
<stop offset="1" stop-color="#B0568D"/>
</linearGradient>
<linearGradient id="paint2_linear_484_523" x1="218" y1="626" x2="218" y2="758" gradientUnits="userSpaceOnUse">
<stop stop-color="#AF82A7"/>
<stop offset="1" stop-color="#B0568D"/>
</linearGradient>
<linearGradient id="paint3_linear_484_523" x1="1235" y1="320" x2="1235" y2="452" gradientUnits="userSpaceOnUse">
<stop stop-color="#AF82A7"/>
<stop offset="1" stop-color="#B0568D"/>
</linearGradient>
<linearGradient id="paint4_linear_484_523" x1="1235" y1="473" x2="1235" y2="605" gradientUnits="userSpaceOnUse">
<stop stop-color="#AF82A7"/>
<stop offset="1" stop-color="#B0568D"/>
</linearGradient>
<linearGradient id="paint5_linear_484_523" x1="1235" y1="626" x2="1235" y2="758" gradientUnits="userSpaceOnUse">
<stop stop-color="#AF82A7"/>
<stop offset="1" stop-color="#B0568D"/>
</linearGradient>
<clipPath id="clip0_484_523">
<rect width="1440" height="1024" fill="white"/>
</clipPath>
</defs>
</svg>
